<?xml version="1.0" encoding="utf-8"?>
<!-- Generator: Adobe Illustrator 16.0.0, SVG Export Plug-In . SVG Version: 6.00 Build 0)  -->
<!DOCTYPE svg PUBLIC "-//W3C//DTD SVG 1.1//EN" "http://www.w3.org/Graphics/SVG/1.1/DTD/svg11.dtd">
<svg version="1.1" id="Layer_1" xmlns="http://www.w3.org/2000/svg" xmlns:xlink="http://www.w3.org/1999/xlink" x="0px" y="0px"
	 width="324px" height="528px" viewBox="0 0 324 528" enable-background="new 0 0 324 528" xml:space="preserve">
<circle fill-rule="evenodd" clip-rule="evenodd" fill="#FF008C" cx="159.991" cy="95.545" r="2.595"/>
<ellipse fill-rule="evenodd" clip-rule="evenodd" fill="#FF008C" cx="172.07" cy="60.728" rx="2.372" ry="3.091"/>
<ellipse fill-rule="evenodd" clip-rule="evenodd" fill="#FF008C" cx="182.786" cy="55.223" rx="2.827" ry="2.322"/>
<circle fill-rule="evenodd" clip-rule="evenodd" fill="#FF008C" cx="169.001" cy="72.545" r="4.783"/>
<g id="gc5rIu_1_">
	<g>
		<path fill-rule="evenodd" clip-rule="evenodd" fill="#E5E5E5" d="M244.254,46.065c1.644-2.048,3.48-4.273,5.242-6.555
			c1.393-1.802,2.677-3.687,4.041-5.51c0.688-0.919,1.399-1.829,2.186-2.664c0.918-0.976,4.286-0.146,4.592,1.161
			c0.121,0.518-0.217,1.144-0.367,1.819c-1.312-0.798-3.487-0.595-4.432,0.224c-1.256,1.09-2.123,3.431-1.641,4.804
			c1.075-0.343,2.148-0.729,3.246-1.024c1.594-0.429,0.854-1.966,1.425-2.873c1.881-0.228,2.334,0.972,2.761,2.484
			c0.319,1.131,0.949,2.251,1.699,3.165c1.085,1.321,4.751,1.395,6.072,0.23c1.415-1.247,2.953-2.424,4.083-3.902
			c0.771-1.007,0.933-2.479,1.369-3.748c0.67,0.109,1.294,0.211,2.045,0.333c-0.416,1.457-0.931,2.82-1.157,4.229
			c-0.116,0.728,0.021,1.819,0.496,2.25c0.906,0.823,2.195,1.205,3.214,1.926c1.241,0.88,2.236,0.161,3.058-0.479
			c1.709-1.332,2.906-3.101,3.285-5.286c0.076-0.443-0.263-0.954-0.394-1.438c-0.33-1.217-0.124-1.702,1.361-2.621
			c0.16,0.989,0.371,1.815,0.412,2.649c0.081,1.644-0.36,3.48,0.251,4.868c0.372,0.845,0.916,2.389,2.868,2.502
			c1.694,0.098,3.026,0.017,4.089-1.174c1.433-1.606,2.505-3.418,1.876-5.75c-0.138-0.511-0.167-1.052-0.244-1.563
			c1.778-0.396,2.329-0.001,2.949,1.376c0.275,0.61,1.024,1.284,1.66,1.406c2.886,0.557,5.813,0.736,8.722,0.087
			c1.254-0.28,2.497-0.625,3.725-1.007c1.112-0.347,2.241-0.696,3.279-1.211c0.82-0.406,1.515-1.065,2.494-1.78
			c0.219,0.149,0.745,0.419,1.136,0.82c0.149,0.153,0.108,0.795-0.05,0.897c-1.474,0.949-2.915,2.014-4.518,2.678
			c-1.743,0.723-3.623,1.216-5.491,1.499c-1.278,0.193-2.576,0.751-3.742,0.705c-2.213-0.088-4.614,0.229-6.612-1.308
			c-0.224-0.171-1.032,0.087-1.31,0.387c-0.532,0.574-0.954,1.286-1.285,2.004c-0.911,1.978-2.181,3.55-4.399,4.055
			c-0.319,0.073-0.74-0.303-1.215-0.517c-0.061,0.092-0.227,0.341-0.369,0.556c-2.275-0.605-4.577-1.13-4.896-4.318
			c-1.178,2.136-2.646,3.505-4.827,3.992c-0.812,0.181-0.775,0.228-1.523-0.443c-0.196-0.176-0.562-0.164-0.941-0.261
			c0.041,0.264,0.08,0.517,0.119,0.766c-0.779,0.19-4.156-2.454-4.815-3.79c-1.604,1.033-3.178,2.119-4.828,3.069
			c-0.566,0.326-1.321,0.378-2,0.442c-1.876,0.178-3.751,0.059-5.186-1.306c-0.692-0.658-1.084-1.642-1.576-2.499
			c-0.227-0.395-0.368-0.838-0.611-1.409c-1.323,0.646-2.498,1.408-3.784,1.791c-1.076,0.32-2.451,1.012-3.233-0.689
			c-0.127-0.276-0.601-0.393-0.925-0.59c-1.275,1.438-2.535,2.837-3.761,4.265c-0.202,0.235-0.227,0.614-0.386,0.897
			c-0.824,1.465-1.752,2.881-2.458,4.401c-0.263,0.565-0.191,1.425,0.023,2.048c0.95,2.761,0.721,5.594,0.618,8.414
			c-0.022,0.623-0.447,1.231-0.721,1.933c-0.028-0.009,0.207,0.065,0.451,0.142c-0.758,1.168-0.903,2.525-1.763,3.705
			c-1.388,1.903-1.719,1.99-3.603,0.572c-2.306-1.736-3.007-3.963-2.617-6.557c0.243-1.616,0.888-3.216,1.595-4.708
			c0.804-1.699,1.723-3.393,2.883-4.859c0.984-1.246,0.748-2.409,0.426-3.65c-0.645-2.482-1.364-4.943-2.047-7.415
			c-0.095-0.343-0.157-0.695-0.215-0.953c-1.302,0.91-2.562,1.959-3.977,2.719c-0.994,0.533-2.211,0.865-3.059-0.497
			c-0.468-0.753-1.103-0.341-1.531,0.031c-2.119,1.836-4.527,2.891-7.352,2.964c-0.512,0.013-1.017,0.195-1.529,0.221
			c-3.158,0.164-5.34-1.589-7.228-3.811c-0.693-0.815-1.007-1.004-1.86-0.046c-1.475,1.656-3.594,2.399-5.689,2.924
			c-1.831,0.459-3.734,0.659-5.618,0.87c-1.646,0.185-3.671-1.557-4.412-3.478c-0.577-1.496-0.541-2.911-0.404-4.512
			c0.15-1.773,0.182-3.81-1.174-5.619c-1.45,1.042-3.348,1.132-4.241,3.108c-0.687,1.519-1.983,2.75-2.895,4.182
			c-0.585,0.92-0.89,2.018-1.464,2.946c-0.278,0.45-0.888,0.694-1.348,1.032c-0.183-0.621-0.456-1.233-0.516-1.866
			c-0.039-0.417,0.229-0.864,0.359-1.299c-1.413,1.172-2.771,2.42-4.256,3.489c-0.88,0.633-1.929,1.087-2.965,1.436
			c-1.27,0.428-2.083-0.457-2.958-1.236c-1.396-1.244-2.534-2.588-2.68-4.665c-2.812,2.382-5.552,4.702-8.289,7.022
			c-0.144,0.122-0.271,0.36-0.412,0.366c-0.397,0.015-0.799-0.062-1.198-0.104c0.113-0.379,0.107-0.897,0.36-1.118
			c2.379-2.071,4.803-4.091,7.212-6.126c0.214-0.18,0.392-0.418,0.631-0.548c1.358-0.74,1.99-1.754,2.145-3.407
			c0.179-1.915,0.968-3.769,1.439-5.662c0.162-0.65,0.166-1.341,0.245-2.034c-1.746,0.335-3.342,0.727-4.961,0.91
			c-0.616,0.069-1.287-0.342-1.934-0.534c0.438-0.464,0.795-1.169,1.328-1.348c1.796-0.602,3.682-0.937,5.481-1.529
			c1.392-0.457,1.473-1.919,1.658-3.042c0.58-3.519,1.525-6.925,3.462-9.905c0.835-1.284,2.307-2.191,3.59-3.132
			c0.824-0.604,1.419-0.085,1.605,0.812c0.101,0.484,0.119,1.008,0.062,1.5c-0.276,2.372-0.448,4.768-0.938,7.098
			c-0.375,1.788-1.166,3.489-1.809,5.335c1.811-0.229,3.597-0.469,5.386-0.676c0.927-0.107,1.863-0.137,2.791-0.237
			c1.505-0.163,0.612-1.46,0.976-2.175c0.416-0.817,0.569-1.763,0.926-2.617c0.804-1.931,1.613-3.863,2.539-5.736
			c0.199-0.402,0.902-0.556,1.373-0.824c0.139,0.444,0.379,0.883,0.399,1.332c0.15,3.321-0.159,6.63-1.089,9.8
			c-0.893,3.043-2.174,5.972-3.293,8.975c0.675-0.23,1.521-0.516,2.365-0.81c1.485-0.518,2.206-0.157,2.688,1.32
			c0.347,1.064,0.851,2.093,1.057,3.181c0.202,1.061,0.282,2.202,0.117,3.261c-0.285,1.834,0.645,4.53,2.338,5.016
			c1.247,0.358,2.725,0.036,4.082-0.131c2.965-0.365,5.478-1.833,7.584-3.813c0.64-0.602,0.765-2.118,0.603-3.131
			c-0.345-2.154,0.815-3.706,1.702-5.383c0.402-0.761,0.919-1.497,1.521-2.107c1.063-1.077,2.326-0.585,2.785,0.831
			c0.653,2.015-0.261,3.672-1.062,5.317c-0.684,1.403-1.731,2.626-2.435,4.021c-0.215,0.426-0.018,1.493,0.326,1.696
			c1.926,1.133,3.382,3.289,6.015,2.964c2.644-0.325,5.417-0.376,7.443-2.45c1.378-1.409,2.493-3.078,3.888-4.468
			c1.127-1.124,2.473-2.04,3.781-2.961c0.257-0.181,0.884-0.102,1.182,0.096c0.798,0.528,1.46,1.267,2.271,1.769
			c0.746,0.463,0.738,1.131,0.7,1.789c-0.059,1.026-0.406,2.058-0.327,3.063c0.076,0.969,0.509,1.918,0.837,2.858
			C243.044,42.776,243.708,44.559,244.254,46.065z M190.925,22.384c-0.813,0.231-1.263,0.41-1.728,0.482
			c-2.479,0.385-4.962,0.739-7.44,1.12c-0.202,0.031-0.462,0.133-0.565,0.289c-0.488,0.729-0.953,1.476-1.389,2.238
			c-1.533,2.682-3.065,5.364-4.559,8.068c-0.234,0.425-0.353,0.96-0.369,1.45c-0.062,1.818,1.096,2.954,2.301,4.108
			c1.063,1.019,2.152,1.059,3.27,0.307c3.106-2.09,5.914-4.525,7.578-7.951c0.872-1.794,1.471-3.735,2.04-5.655
			C190.468,25.473,190.617,24.03,190.925,22.384z M184.495,8.034c-3.383,1.29-5.938,8.379-6.499,13.85
			c2.437,0.219,3.31-0.446,4.287-2.844C183.714,15.532,184.634,11.942,184.495,8.034z M241.603,64.728
			c2.839-4.375,2.843-8.936,1.612-14.068c-0.398,0.72-0.655,1.091-0.82,1.498c-0.808,1.983-1.507,4.016-2.403,5.957
			C238.752,60.798,239.257,62.684,241.603,64.728z M233.616,38.033c-0.007,0.171-0.014,0.342-0.021,0.513
			c0.561,0.092,1.271,0.449,1.656,0.23c1.449-0.824,2.889-1.725,4.138-2.817c0.717-0.627,0.116-1.986-0.767-1.923
			c-0.651,0.046-1.422,0.271-1.888,0.694C235.617,35.744,234.646,36.921,233.616,38.033z M191.832,26.838
			c0.219,0.068,0.438,0.136,0.656,0.204c1.069-4.648,3.638-8.916,3.144-13.962C193.353,17.4,193.447,22.344,191.832,26.838z
			 M175.514,31.521c1.395-2.457,2.719-4.789,4.193-7.387c-1.134,0.263-1.926,0.447-2.566,0.595
			C176.585,27.05,176.062,29.235,175.514,31.521z M218.379,27.73c-2.292,1.984-2.766,4.417-2.999,6.959
			C216.566,32.577,218.588,30.842,218.379,27.73z"/>
		<path fill-rule="evenodd" clip-rule="evenodd" fill="#E5E5E5" d="M147.354,113.431c0-0.531-0.008-1.062,0.001-1.593
			c0.081-5.101,1.054-10.163,0.354-15.308c-0.29-2.141,0.394-4.413,0.105-6.555c-0.342-2.54,0.263-4.827,0.93-7.161
			c0.275-0.963,0.403-1.842,1.973-1.785c1.164,0.043,2.324-1.164,3.562-1.379c1.822-0.316,3.739-0.479,5.566-0.272
			c1.822,0.206,3.572,0.998,5.379,1.43c0.806,0.192,1.672,0.137,2.511,0.186c0.742,0.043,0.933,0.305,0.929,1.148
			c-0.017,3.869,0.118,7.739,0.202,11.609c0.046,2.081,0.058,4.164,0.166,6.242c0.06,1.141,0.359,2.269,0.428,3.408
			c0.11,1.836-0.027,3.698,0.219,5.511c0.187,1.369,0.635,2.771,1.272,3.997c1.408,2.705,3.989,4.375,6.12,6.436
			c1.8,1.74,3.737,3.343,5.474,5.142c0.595,0.616,0.89,1.61,1.104,2.485c0.44,1.791,1.68,3.212,1.739,5.26
			c0.084,2.908-0.578,5.494-2.333,7.619c-1.123,1.36-2.722,2.493-4.69,2.717c-3.459,0.393-6.908,0.882-10.373,1.21
			c-2.325,0.221-4.669,0.278-7.006,0.326c-2.963,0.061-5.929,0.044-8.893,0.047c-2.669,0.004-5.339,0.02-8.007-0.039
			c-0.702-0.016-1.446-0.181-2.088-0.465c-1.844-0.814-3.751-0.095-5.613-0.326c-0.199-0.025-0.42,0.378-0.67,0.455
			c-0.504,0.156-1.15,0.463-1.534,0.28c-0.938-0.446-1.854-1.041-2.602-1.761c-0.535-0.515-1.088-1.317-1.107-2.007
			c-0.061-2.195-0.13-4.449,0.298-6.581c0.324-1.614,1.397-3.08,2.148-4.606c1.415-2.879,3.867-4.885,6.028-7.137
			c0.194-0.203,0.463-0.375,0.57-0.617c0.885-2.003,2.795-2.77,4.438-3.93c1.411-0.997,2.474-2.489,3.689-3.763
			C147.548,113.58,147.45,113.505,147.354,113.431z M159.743,93.651c-0.958,1.443-1.583,2.839-0.997,4.574
			c0.441-0.125,0.806-0.2,1.148-0.33c1.434-0.547,2.584-3.05,2.001-4.317c-1.224-2.66-1.709-5.431-1.22-8.516
			c-0.82,0.184-1.571,0.402-2.339,0.506c-0.57,0.076-1.241,0.181-1.729-0.036c-1.686-0.75-3.311-1.635-5.191-2.587
			c0.603,0.93,1.058,1.631,1.513,2.333c-0.062,0.05-0.123,0.1-0.185,0.149c-0.464-0.329-0.927-0.657-1.396-0.99
			c-0.27,0.846-0.635,1.603-0.74,2.395c-0.312,2.324-0.641,4.657-0.725,6.996c-0.054,1.465,0.558,2.961,0.464,4.416
			c-0.362,5.637-0.87,11.265-1.364,16.892c-0.119,1.355-0.476,1.51-1.67,0.931c-0.539,0.754-0.941,1.978-1.645,2.187
			c-3.149,0.938-4.33,3.934-6.936,5.981c9.58-2.737,19.018-3.375,28.52-3.821c-0.783-0.579-1.501-1.11-2.232-1.652
			c0.117-0.281,0.286-0.482,0.242-0.609c-0.453-1.295,1.23-1.761,1.14-2.923c-0.004-0.049,0.588-0.273,0.812-0.186
			c0.663,0.26,1.355,0.544,1.898,0.987c0.871,0.711,1.812,1.454,2.353,2.396c0.229,0.398-0.483,1.337-0.663,1.775
			c2.585,0.78,5.285,1.595,7.984,2.41c-1.224-1.335-2.609-2.465-3.959-3.637c-1.211-1.053-2.406-2.124-3.561-3.238
			c-0.614-0.593-1.222-1.234-1.661-1.958c-0.633-1.041-1.449-2.138-1.583-3.28c-0.264-2.258-0.015-4.569-0.16-6.847
			c-0.149-2.349-0.605-4.678-0.767-7.025c-0.193-2.812-0.186-5.638-0.327-8.454c-0.072-1.443-0.281-2.881-0.447-4.509
			c-0.373,0.292-0.544,0.438-0.729,0.566c-0.213,0.146-0.438,0.276-0.645,0.405c0.959,2.214-0.75,7.129-2.449,7.785
			c0.2,1.015,0.356,1.99,0.593,2.947c0.356,1.447-1.021,2.12-1.492,3.187c-0.309,0.698-1.572,1.169-2.477,1.312
			c-0.352,0.056-0.922-1.049-1.329-1.667c-0.166-0.254-0.168-0.617-0.241-0.932c-0.437-1.871,0.567-4.469,2.186-5.305
			c0.342,0.8,0.677,1.587,1.013,2.374c-0.103,0.055-0.205,0.11-0.308,0.165C160.25,94.268,160.058,94.033,159.743,93.651z
			 M134.154,141.142c0.612,0.061,1.203,0.1,1.789,0.181c3.474,0.477,6.934,1.164,10.423,1.386c3.072,0.194,6.177-0.134,9.269-0.221
			c3.557-0.101,7.115-0.146,10.669-0.299c2.637-0.114,5.265-0.433,7.9-0.529c2.192-0.08,4.164-0.789,6.021-1.835
			c0.696-0.392,1.401-0.995,1.78-1.68c1.73-3.121,2.606-6.354,0.754-9.663c-2.57,0.968-5.058,2.069-7.646,2.83
			c-2.224,0.653-4.568,0.89-6.849,1.361c-1.896,0.392-3.756,1.02-5.668,1.255c-3.727,0.459-7.456-0.039-11.141-0.534
			c-3.148-0.423-6.249-1.217-9.353-1.928c-1.231-0.282-2.497-0.626-3.591-1.229c-0.894-0.492-1.554-1.41-2.283-2.105
			c-0.806,0.882-1.881,1.597-2.277,2.584c-1.025,2.554-2.282,5.082-2.012,8.004c0.111,1.209,1.156,3.147,2.052,3.266
			C134.044,141.72,134.095,141.452,134.154,141.142z M136.993,126.604c1.185,1.847,2.714,2.419,4.391,2.781
			c3.136,0.677,6.24,1.527,9.399,2.058c2.439,0.41,4.939,0.548,7.418,0.61c2.249,0.057,4.525,0.001,6.752-0.287
			c2.184-0.284,4.3-1.158,6.482-1.354c3.423-0.306,6.617-1.235,9.68-2.701c0.38-0.182,0.896-0.802,0.82-1.062
			c-0.163-0.552-0.059-1.406-1.174-1.426c-0.783-0.014-1.593-0.471-2.332-0.845c-3.725-1.89-7.698-2.603-11.822-2.391
			c-3.97,0.203-7.932,0.558-11.895,0.884c-4.529,0.373-9.043,0.89-13.435,2.111C139.823,125.387,138.439,126.048,136.993,126.604z
			 M152.602,82.164c0.768,0.281,1.543,0.422,2.151,0.818c1.159,0.756,2.374,0.963,3.71,0.824c0.594-0.062,1.246,0.118,1.789-0.062
			c1.192-0.396,2.854,0.511,3.521-1.359c0.088,0.155,0.176,0.311,0.264,0.466c0.276-0.227,0.552-0.453,0.913-0.749
			C161.877,80.466,155.718,80.522,152.602,82.164z M161.863,90.538c0.974-0.42,2.53-3.076,2.346-3.834
			c-0.058-0.235-0.266-0.513-0.48-0.618c-0.906-0.443-2.396,0.416-2.356,1.431C161.411,88.513,161.685,89.498,161.863,90.538z
			 M167.337,116.451c-1.146,2.018-0.533,3.206,1.644,3.259c0.447,0.011,0.975-0.367,1.322-0.711c0.13-0.127-0.034-0.837-0.262-0.991
			C169.184,117.424,168.245,116.96,167.337,116.451z"/>
		<path fill-rule="evenodd" clip-rule="evenodd" fill="#E5E5E5" d="M18.721,36.281c-4.578,3.111-9.299,5.908-14.854,6.892
			C3.229,41.792,3.541,40.999,5.05,40.9c2.696-0.176,5.049-1.279,7.272-2.626c2.297-1.393,4.419-3.069,6.678-4.528
			c1.576-1.019,2.447-2.497,3.045-4.171c0.829-2.318,1.432-4.727,2.397-6.983c1.265-2.958,2.84-5.781,4.187-8.707
			c1.076-2.34,2.424-4.398,4.774-5.742c1.101,1.661,0.26,3.216-0.071,4.77c-0.092,0.433-0.276,0.846-0.421,1.268
			c-0.877,2.561-1.604,5.187-2.676,7.663c-0.956,2.209-2.147,4.354-3.519,6.332c-0.875,1.262-2.266,2.165-3.534,3.329
			c2.267,1.509,2.301,3.739,2.693,5.679c0.597,2.947,2.237,4.497,5.056,5.276c1.461,0.404,2.536-0.178,3.736-0.626
			c2.751-1.028,5.411-2.276,6.966-4.905c1.128-1.907,2.575-3.768,2.269-6.247c-0.029-0.235,0.391-0.545,0.634-0.79
			c0.593-0.595,3.296-0.917,3.789-0.314c0.339,0.414,0.391,1.142,0.399,1.732c0.038,2.782,0.017,5.565,0.017,8.422
			c3.313,0.767,6.128-0.8,8.772-2.856c2.363-1.836,4.642-3.785,7.053-5.555c1.444-1.06,3.223-1.296,4.876-0.631
			c0.891,0.358,1.752,1.163,2.269,1.99c0.679,1.087,0.967,2.412,1.512,3.595c0.125,0.272,0.615,0.553,0.924,0.538
			c3.263-0.158,6.018-1.632,8.617-3.461c1.127-0.792,2.18-1.708,3.376-2.37c0.312-0.172,1.442,0.326,1.497,0.639
			c0.198,1.124,0.1,2.3,0.108,3.457c0.005,0.74,0.001,1.48,0.001,2.441c1.83-1.537,3.381-2.846,4.939-4.146
			c1.375-1.146,2.73-0.618,2.752,1.143c0.013,1.093,0.276,2.183,0.421,3.224c1.149-1.219,2.303-2.476,3.497-3.692
			c0.383-0.391,0.85-0.715,1.319-1.003c0.763-0.468,1.354-0.447,1.696,0.574c0.279,0.832,0.968,1.584,1.04,2.411
			c0.086,0.982-0.292,2.005-0.493,3.146c0.065,0.017,0.301,0.079,0.278,0.073c0.651,1.333-0.541,2.727,0.607,3.978
			c0.174,0.189-0.168,0.852-0.307,1.449c0.302-0.076,0.608-0.254,0.729-0.169c3.033,2.137,5.908,0.252,8.659-0.599
			c1.396-0.432,2.397-2.147,3.574-3.285c1.035-1.001,1.128-0.996,2.195,0.437c-1.702,1.707-3.425,3.463-5.203,5.161
			c-0.16,0.153-0.684-0.075-0.796-0.091c-0.708,0.298-1.242,0.593-1.815,0.752c-1.466,0.406-2.944,0.764-4.424,1.119
			c-2.144,0.514-4.467-1.432-4.696-4.004c-0.181-2.025-0.225-4.062-0.374-6.091c-0.064-0.865-0.244-1.723-0.443-3.072
			c-1.341,1.176-2.614,1.977-3.44,3.105c-0.873,1.192-1.335,2.69-1.932,4.074c-0.07,0.164,0.129,0.451,0.218,0.674
			c0.409,1.028-0.548,3.368-1.904,3.95c-0.151-0.996-0.401-1.906-0.405-2.818c-0.01-2.184,0.102-4.369,0.153-6.553
			c0.018-0.732,0.003-1.466,0.003-2.443c-3.827,2.565-6.884,5.369-7.991,9.823c-0.144,0.579-0.91,1.002-1.388,1.498
			c-0.154-0.67-0.546-1.391-0.418-2.003c0.477-2.279,1.165-4.513,1.69-6.782c0.298-1.286,0.435-2.608,0.72-4.384
			c-2.116,2.472-4.725,3.335-7.486,4.899c-0.473,0.912-4.311,1.761-6.051,0.855c-0.39,1.242-0.334,2.778-2,3.203
			c-1.023,2.466-3.466,2.802-5.556,3.424c-1.661,0.495-3.694,0.473-5.011-0.797c-0.858-0.828-1.096-2.347-1.483-3.596
			c-0.22-0.706-0.181-1.492-0.277-2.428c-2.932,2.189-5.883,3.626-9.378,3.557c-1.571-0.031-2.64-1.791-2.175-3.317
			c0.261-0.854,0.251-1.808,0.264-2.718c0.017-1.261-0.042-2.525-0.11-3.786c-0.013-0.226-0.234-0.622-0.358-0.622
			c-0.273,0-0.657,0.13-0.796,0.34c-0.256,0.39-0.395,0.867-0.538,1.321C43.574,38.632,40,42.196,34.921,44.288
			c-2.709,1.116-5.237,0.416-7.587-1.157c-0.149-0.1-0.307-0.19-0.674-0.417c-0.191,1.215-0.37,2.29-0.529,3.367
			c-0.184,1.248-0.362,2.496-0.521,3.746c-0.265,2.07-0.308,4.194-0.823,6.198c-0.524,2.042-1.259,4.121-2.362,5.897
			c-0.983,1.582-2.483,2.912-3.958,4.102c-2.437,1.967-5.653,1.531-6.624-1.978c-0.835-3.021,0.145-5.619,1.003-8.313
			c1.146-3.596,2.354-7.171,3.552-10.751c0.526-1.573,1.124-3.123,1.625-4.704c0.385-1.217,0.669-2.467,0.998-3.702
			C18.92,36.479,18.82,36.38,18.721,36.281z M22.468,33.262c-0.214-0.007-0.428-0.014-0.642-0.021
			c-0.891,2.793-1.777,5.587-2.674,8.378c-1.098,3.416-2.2,6.83-3.31,10.243c-0.61,1.875-1.345,3.717-1.825,5.624
			c-0.429,1.705-0.87,3.491-0.793,5.218c0.111,2.454,1.866,3.245,4.1,2.164c2.818-1.364,4.481-3.757,5.271-6.621
			c0.737-2.675,0.986-5.484,1.479-8.228c0.344-1.917,1.096-3.841,1.02-5.735c-0.104-2.554-0.757-5.1-1.318-7.617
			C23.514,35.492,22.914,34.394,22.468,33.262z M67.898,33.813c0.098-0.109,0.195-0.219,0.293-0.329
			c-0.862-0.535-1.646-0.618-2.511,0.145c-0.704,0.621-1.519,1.166-2.369,1.563c-2.314,1.082-3.337,2.771-3.03,5.359
			c0.204,1.725,0.995,2.853,2.697,3.053c2.753,0.324,4.998-0.946,6.893-2.706c1.27-1.18,1.109-2.127-0.001-3.528
			c-0.29-0.367-0.639-0.704-0.851-1.112C68.604,35.466,68.268,34.631,67.898,33.813z M24.102,28.734
			c4.501-4.815,6.502-10.773,7.769-17.067C28.017,16.779,25.842,22.657,24.102,28.734z"/>
		<path fill-rule="evenodd" clip-rule="evenodd" fill="#E5E5E5" d="M146.305,28.646c0.49,0.073,0.981,0.146,1.512,0.226
			c-0.334,0.962-0.65,1.631-0.781,2.334c-0.086,0.46,0.115,0.968,0.15,1.458c0.03,0.414,0.006,0.832,0.006,1.144
			c2.197,1.496,4.083,0.579,5.987-0.676c1.776-1.169,3.085-4.055,2.834-6.159c-0.319-2.663-1.328-5.035-2.825-7.197
			c-0.507-0.732-1.335-1.243-1.914-1.762c-2.094,0.293-4.181,0.582-6.267,0.879c-2.537,0.36-4.239,1.84-5.378,4.053
			c-0.6,1.166-1.176,2.344-1.759,3.518c-0.062,0.125-0.14,0.261-0.142,0.393c-0.025,1.479-0.361,2.824-0.915,4.245
			c-0.511,1.31-0.153,2.991-0.041,4.499c0.103,1.367,0.382,2.722,0.598,4.08c0.289,1.825,1.542,2.942,3.313,3.246
			c2.736,0.469,5.323,0.02,7.885-0.922c0.727-0.268,1.519-0.397,2.293-0.489c2.455-0.292,4.111-1.743,5.463-3.662
			c0.321-0.455,0.571-0.991,0.98-1.343c0.248-0.214,0.856-0.319,1.088-0.16c0.251,0.172,0.427,0.766,0.326,1.074
			c-0.229,0.7-0.512,1.472-1.013,1.977c-1.902,1.916-3.663,4.133-6.468,4.748c-3.028,0.665-6.104,1.114-9.16,1.647
			c-1.753,0.306-3.355-0.166-4.771-1.153c-1.812-1.264-1.821-3.357-2.255-5.257c-1.108-4.859,0.254-9.507,1.413-14.1
			c0.676-2.676,2.15-4.987,4.525-6.886c2.379-1.903,5.031-1.775,7.618-2.257c1.225-0.228,2.642-0.046,3.83,0.361
			c0.872,0.298,1.697,1.148,2.223,1.96c1.051,1.627,2.076,3.325,2.733,5.131c0.423,1.16,0.151,2.566,0.225,3.86
			c0.104,1.851-1.109,3.247-1.582,4.853c-0.364,1.237-0.965,1.524-1.857,1.956c-0.367,0.178-0.598,0.677-0.846,1.06
			c-0.915,1.411-2.603,1.997-4.132,1.37c0,0.21,0,0.397,0,0.45c-3.451-0.18-3.944-2.972-4.634-5.687
			c-0.385,1.384-1.315,1.508-2.266,1.266c-1.079-0.276-1.56-1.156-1.168-2.178c0.617-1.611,1.257-3.258,2.194-4.687
			c0.777-1.185,1.716-0.92,2.208,0.413c0.288,0.78,0.514,1.584,0.768,2.377c-0.513-0.46-1.005-0.949-1.549-1.369
			c-0.243-0.188-0.707-0.424-0.874-0.321c-0.871,0.542-1.023,3.01-0.192,4.185C144.58,30.294,145.442,29.47,146.305,28.646z"/>
		<path fill-rule="evenodd" clip-rule="evenodd" fill="#E5E5E5" d="M170.735,168.309c2.333-2.682,0.967-5.218,0.788-7.667
			c-0.121-1.677-0.283-3.353-0.517-5.017c-0.19-1.363-0.447-2.727-0.806-4.055c-0.162-0.601-0.645-1.114-1.16-1.962
			c1.011-0.202,1.976-0.482,2.957-0.574c1.84-0.172,3.69-0.287,5.537-0.314c0.658-0.009,1.338,0.258,1.979,0.482
			c0.665,0.234,1.292,0.576,1.939,0.862c1.462,0.646,1.422,2.164,1.52,3.297c0.109,1.285-0.49,2.63-0.791,3.989
			c2.044,1.276,3.292,4.231,2.093,6.779c-0.421,0.894-0.628,1.918-1.182,2.708c-0.4,0.572-1.162,1.074-1.849,1.23
			c-2.104,0.478-4.239,0.94-6.383,1.074C173.616,169.221,172.331,168.656,170.735,168.309z M173.286,160.744
			c0,1.567-0.071,3.123,0.021,4.67c0.089,1.525,1.263,2.234,2.861,1.913c1.126-0.227,2.272-0.354,3.394-0.601
			c0.825-0.181,1.748-0.304,2.409-0.765c1.589-1.106,1.289-2.87,1.09-4.452c-0.139-1.098-2.391-2.871-3.139-2.665
			C177.725,159.451,175.539,160.096,173.286,160.744z M173.038,158.791c0.94-0.382,1.757-0.814,2.626-1.04
			c1.106-0.287,2.286-0.307,3.382-0.62c2.14-0.612,2.569-1.526,2.231-3.775c-0.153-1.016-0.543-1.428-1.488-1.98
			c-2.411-1.408-4.918,0.036-7.297-0.632c-0.143-0.04-0.637,0.468-0.63,0.712c0.041,1.562,0.093,3.135,0.313,4.679
			C172.309,157.06,172.752,157.941,173.038,158.791z"/>
		<path fill-rule="evenodd" clip-rule="evenodd" fill="#E5E5E5" d="M163.23,157.613c-1.395,1.422-1.03,2.678-0.457,4.278
			c0.754,2.11,0.892,4.45,1.194,6.705c0.052,0.387-0.396,0.841-0.611,1.264c-0.16,0.015-0.319,0.03-0.479,0.046
			c-0.283-0.775-0.93-1.628-0.784-2.312c0.585-2.746-1.178-5.035-1.289-7.623c-0.009-0.205-0.628-0.595-0.897-0.545
			c-1.51,0.281-3.013,0.621-4.489,1.044c-0.84,0.24-1.341,0.703-1.459,1.805c-0.167,1.567-0.808,3.084-1.264,4.685
			c-1.212-0.074-1.003-1.106-0.774-1.717c1.271-3.39,1.689-6.962,2.479-10.456c0.493-2.185,0.724-4.521,2.236-6.407
			c0.649-0.81,1.114-1.203,1.616,0.004c0.8,1.922,1.481,3.896,2.336,5.792C161.159,155.447,161.131,157.211,163.23,157.613z
			 M157.422,149.652c-1.632,2.937-2.023,5.863-2.447,9.072c1.785-0.553,3.424-1.06,5.203-1.609
			C159.245,154.591,158.393,152.281,157.422,149.652z"/>
		<path fill-rule="evenodd" clip-rule="evenodd" fill="#E5E5E5" d="M135.18,163.617c4.385,0.226,8.638,0.444,13.031,0.67
			c-0.765,1.475-2.112,2.062-3.342,1.863c-3.004-0.483-6.014-0.703-9.066-0.314c-1.62,0.205-1.955-0.352-1.937-1.983
			c0.04-3.545-0.012-7.092-0.031-10.638c-0.005-0.953-0.082-1.911-0.027-2.86c0.058-0.981,0.728-1.197,1.372-1.093
			C135.18,154.122,135.18,158.935,135.18,163.617z"/>
		<path fill-rule="evenodd" clip-rule="evenodd" fill="#E5E5E5" d="M169.194,65.747c1.83,0.789,3.217,2.008,3.788,4.027
			c0.163,0.573,0.367,1.134,0.53,1.707c0.781,2.745-0.12,4.576-2.787,5.68c-3.028,1.254-5.277,0.483-6.178-2.174
			c-1.039-3.065,0.466-5.809,3.276-6.809c1.028-0.366,1.523,0.254,1.956,1.031c0.417,0.75,0.677,1.455-0.386,2.019
			c-0.046-0.423-0.084-0.78-0.129-1.194c-0.225-0.027-0.452-0.085-0.677-0.076c-2.064,0.082-3.773,2.876-2.907,4.74
			c0.566,1.218,1.977,1.659,3.733,1.079c0.775-0.256,1.576-0.562,2.227-1.037c0.875-0.638,1.363-1.396,0.896-2.701
			c-0.604-1.684-1.067-3.251-2.945-4.046c-0.478-0.202-0.563-1.33-0.829-2.032C168.906,65.89,169.05,65.818,169.194,65.747z"/>
		<path fill-rule="evenodd" clip-rule="evenodd" fill="#E5E5E5" d="M179.959,56.786c0.515-1.894,0.365-4.074,2.375-5.244
			c0.331-0.192,1.175-0.124,1.335,0.119c0.657,0.998,1.22,2.078,1.672,3.187c0.572,1.402,0.252,2.365-1.082,3.121
			c-0.872,0.494-1.869,1.013-2.827,1.047C180.053,59.064,180.295,57.676,179.959,56.786z M180.895,56.699
			c0.156,0.131,0.313,0.263,0.47,0.395c1.052-0.362,2.104-0.725,3.05-1.05c-0.579-1.261-1.016-2.211-1.596-3.473
			C182.146,54.015,181.52,55.357,180.895,56.699z"/>
		<path fill-rule="evenodd" clip-rule="evenodd" fill="#E5E5E5" d="M172.854,56.586c0.199,0.284,0.589,0.605,0.534,0.8
			c-0.353,1.241,0.744,1.915,1.054,2.886c0.336,1.054-0.704,3.248-1.78,3.432c-0.305,0.052-0.746-0.11-0.978-0.329
			c-1.069-1.011-1.576-3.917-0.797-5.102C171.283,57.672,172.012,57.289,172.854,56.586z M171.956,62.076
			c0.147,0.03,0.296,0.061,0.444,0.091c0.38-0.473,0.759-0.946,1.139-1.419c-0.583-0.34-1.167-0.68-1.75-1.02
			c-0.099,0.075-0.198,0.15-0.297,0.225C171.646,60.661,171.801,61.368,171.956,62.076z"/>
		<path fill-rule="evenodd" clip-rule="evenodd" fill="#FF008C" d="M134.154,141.142c-0.06,0.311-0.11,0.578-0.161,0.844
			c-0.896-0.118-1.94-2.057-2.052-3.266c-0.271-2.922,0.986-5.45,2.012-8.004c0.396-0.987,1.472-1.702,2.277-2.584
			c0.729,0.695,1.39,1.613,2.283,2.105c1.094,0.603,2.359,0.946,3.591,1.229c3.104,0.711,6.204,1.505,9.353,1.928
			c3.685,0.495,7.414,0.993,11.141,0.534c1.912-0.235,3.772-0.863,5.668-1.255c2.28-0.472,4.625-0.708,6.849-1.361
			c2.588-0.761,5.075-1.862,7.646-2.83c1.853,3.309,0.977,6.542-0.754,9.663c-0.379,0.685-1.084,1.288-1.78,1.68
			c-1.857,1.046-3.829,1.755-6.021,1.835c-2.636,0.097-5.264,0.415-7.9,0.529c-3.554,0.153-7.112,0.198-10.669,0.299
			c-3.092,0.087-6.196,0.415-9.269,0.221c-3.489-0.222-6.949-0.909-10.423-1.386C135.357,141.241,134.767,141.202,134.154,141.142z"
			/>
		<path fill-rule="evenodd" clip-rule="evenodd" fill="#FFA1D5" d="M136.993,126.604c1.446-0.556,2.83-1.217,4.285-1.621
			c4.392-1.222,8.905-1.738,13.435-2.111c3.963-0.326,7.925-0.681,11.895-0.884c4.124-0.212,8.098,0.501,11.822,2.391
			c0.739,0.374,1.549,0.831,2.332,0.845c1.115,0.02,1.011,0.874,1.174,1.426c0.076,0.261-0.44,0.881-0.82,1.062
			c-3.062,1.466-6.257,2.396-9.68,2.701c-2.183,0.195-4.299,1.069-6.482,1.354c-2.227,0.288-4.503,0.344-6.752,0.287
			c-2.479-0.062-4.979-0.2-7.418-0.61c-3.159-0.53-6.264-1.381-9.399-2.058C139.707,129.022,138.178,128.45,136.993,126.604z"/>
		<path fill-rule="evenodd" clip-rule="evenodd" fill="#FF008C" d="M161.863,90.538c-0.179-1.04-0.452-2.025-0.491-3.021
			c-0.04-1.015,1.45-1.874,2.356-1.431c0.215,0.105,0.423,0.383,0.48,0.618C164.394,87.462,162.837,90.118,161.863,90.538z"/>
		<path fill-rule="evenodd" clip-rule="evenodd" fill="#FF008C" d="M167.337,116.451c0.908,0.509,1.847,0.973,2.704,1.557
			c0.228,0.154,0.392,0.864,0.262,0.991c-0.348,0.344-0.875,0.722-1.322,0.711C166.804,119.657,166.19,118.469,167.337,116.451z"/>
		<path fill-rule="evenodd" clip-rule="evenodd" fill="#E5E5E5" d="M24.102,28.734"/>
		<path fill-rule="evenodd" clip-rule="evenodd" fill="#E5E5E5" d="M31.87,11.667"/>
		<path fill-rule="evenodd" clip-rule="evenodd" fill="#E5E5E5" d="M155.674,113.344c0.105-0.178,0.17-0.459,0.32-0.517
			c2.739-1.05,6.781-0.02,7.948,2.791c0.868,2.091-0.559,3.713-2.458,4.231c-2.044,0.559-4.593-0.582-5.449-2.525
			c-0.377-0.856-0.218-1.955-0.268-2.946c-0.015-0.303,0.088-0.611,0.137-0.918C155.828,113.421,155.751,113.383,155.674,113.344z
			 M160.328,119.407c1.137-0.228,1.719-0.562,2.109-1.507c0.687-1.654-1.136-4.559-2.925-4.491c-0.13,0.005-0.31,0.048-0.377,0.14
			c-0.669,0.906-1.361,1.801-1.945,2.761c-0.146,0.239-0.055,0.87,0.153,1.033C158.295,118.087,159.326,118.729,160.328,119.407z"/>
		<path fill-rule="evenodd" clip-rule="evenodd" fill="#E5E5E5" d="M156.083,99.22c0.983,1.934,2.259,3.665,1.967,5.866
			c-0.107,0.81-0.596,1.576-0.96,2.339c-0.124,0.261-0.445,0.423-0.593,0.679c-0.751,1.295-1.632,1.455-2.471,0.232
			c-0.977-1.422-1.941-2.978-1.313-4.825c0.408-1.197,0.959-2.376,1.645-3.435C154.646,99.63,155.448,99.516,156.083,99.22z
			 M153.061,104.995c0.424,0.833,0.684,1.571,1.146,2.149c0.202,0.254,0.921,0.382,1.223,0.222c1.736-0.921,2.344-3.489,1.392-5.243
			c-0.272-0.502-0.441-1.165-1.093-0.779c-0.291,0.172-0.272,0.901-0.354,1.385c-0.116,0.695,0.739,1.566-0.551,2.241
			c0-0.675,0-1.188,0-1.813C153.84,103.558,155.045,105.312,153.061,104.995z"/>
		<path fill-rule="evenodd" clip-rule="evenodd" fill="#E5E5E5" d="M152.844,109.95c1.738,0.318,3.478,0.637,5.381,0.984
			c-0.317-0.444-0.554-0.774-0.789-1.104c0.053-0.131,0.107-0.262,0.161-0.393c3.147,1.759,6.449,0.204,9.769,0.748
			c-0.134,0.253-0.205,0.614-0.367,0.66c-1.43,0.407-2.867,1.017-4.32,1.068c-2.34,0.082-4.703-0.127-7.035-0.392
			c-1.034-0.117-2.019-0.67-3.025-1.024C152.693,110.315,152.769,110.133,152.844,109.95z"/>
		<path fill-rule="evenodd" clip-rule="evenodd" fill="#FF008C" d="M160.328,119.407c-1.002-0.679-2.033-1.32-2.984-2.064
			c-0.208-0.163-0.299-0.794-0.153-1.033c0.584-0.96,1.276-1.854,1.945-2.761c0.067-0.092,0.247-0.135,0.377-0.14
			c1.789-0.067,3.611,2.837,2.925,4.491C162.047,118.845,161.465,119.18,160.328,119.407z"/>
		<path fill-rule="evenodd" clip-rule="evenodd" fill="#FF008C" d="M153.061,104.995c1.984,0.317,0.779-1.438,1.763-1.839
			c0,0.625,0,1.139,0,1.813c1.29-0.675,0.435-1.546,0.551-2.241c0.081-0.483,0.062-1.213,0.354-1.385
			c0.651-0.386,0.82,0.277,1.093,0.779c0.952,1.754,0.345,4.322-1.392,5.243c-0.302,0.16-1.021,0.032-1.223-0.222
			C153.744,106.566,153.484,105.828,153.061,104.995z"/>
	</g>
</g>
<circle fill-rule="evenodd" clip-rule="evenodd" fill="#FF008C" cx="158.767" cy="296.795" r="3.245"/>
<circle fill-rule="evenodd" clip-rule="evenodd" fill="#FF008C" cx="174.849" cy="224.991" r="1.347"/>
<circle fill-rule="evenodd" clip-rule="evenodd" fill="#FF008C" cx="183.523" cy="221.188" r="1.475"/>
<g id="_x34_ODC7F_1_">
	<g>
		<path fill-rule="evenodd" clip-rule="evenodd" fill="#E5E5E5" d="M27.578,216.796c-0.308,2.017,0.277,4.062-0.931,5.81
			c1.108,2.521-2.109,4.499-0.887,7.036c-1.066,1.256-0.671,2.919-1.195,4.335c-0.24,0.647-0.236,1.385-0.231,2.073
			c-0.229,0.671-0.522,1.327-0.676,2.015c-0.326,1.467-2.451,3.4-3.801,3.443c-0.128,0.286-0.194,0.729-0.367,0.774
			c-1.748,0.468-3.553,0.798-5.144-0.354c-1.566-1.137-1.07-2.836-0.698-4.285c0.787-3.07,1.64-6.141,2.733-9.111
			c0.944-2.562,2.331-4.955,3.386-7.48c0.729-1.742,1.182-3.596,1.838-5.371c0.85-2.295,1.777-4.561,2.662-6.842
			c0.022-0.061-0.061-0.162-0.2-0.506c-0.496,0.717-0.843,1.381-1.341,1.903c-0.975,1.024-1.961,2.063-3.074,2.93
			c-1.747,1.36-3.6,2.585-5.412,3.862c-0.966,0.681-1.952,1.335-2.91,2.029c-1.215,0.882-2.507,1.211-3.968,0.619
			c-0.065-0.351-0.137-0.731-0.212-1.14c2.004-0.999,4.073-1.952,6.06-3.056c0.828-0.461,1.443-1.289,2.219-1.865
			c1.353-1.006,2.793-1.896,4.114-2.94c0.49-0.389,0.682-1.134,1.121-1.612c1.209-1.309,2.559-2.494,3.7-3.855
			c1.343-1.601,2.815-3.193,3.722-5.041c1.934-3.944,3.365-8.138,5.342-12.059c1.218-2.414,2.895-4.681,5.222-6.231
			c0.553-0.368,1.563-0.406,2.215-0.175c0.708,0.25,0.898,2.257,0.261,2.923c-1.618,1.69-1.579,3.948-2.293,5.948
			c-0.595,1.662-1.51,3.17-3.215,4.021c-0.209,0.104-0.159,0.643-0.329,0.919c-1.164,1.894-2.332,3.725-3.845,5.44
			c-1.876,2.127-2.927,4.995-4.249,7.588c-0.545,1.066-0.867,2.247-1.199,3.135c1.032,0.985,1.866,1.719,2.629,2.521
			c1.135,1.192,2.137,2.526,3.36,3.616c0.632,0.562,1.606,0.982,2.448,1.022c2.051,0.099,4.01-0.008,5.896-1.36
			c1.204-0.863,2.686-1.395,3.422-2.757c0.677-1.251,1.183-2.608,1.633-3.963c0.501-1.499,0.8-3.065,1.293-4.567
			c0.282-0.857,2.376-1.592,3.251-1.261c0.881,0.334,1.424,1.765,1.107,2.862c-0.67,2.315-0.498,4.633,0.438,6.795
			c0.828,1.91,1.127,1.969,2.953,1.185c1.316-0.564,2.66-1.194,3.77-2.074c1.478-1.173,2.819-2.546,4.074-3.962
			c1.684-1.901,3.554-3.346,6.189-3.537c1.129-0.082,3.025,0.857,3.447,1.848c0.12,0.28,0.103,0.812-0.082,0.984
			c-0.271,0.255-0.774,0.451-1.129,0.389c-0.776-0.137-1.506-0.531-2.281-0.659c-0.385-0.063-0.854,0.179-1.244,0.368
			c-3.013,1.466-3.919,3.736-4.236,7.141c-0.161,1.736,1.046,1.417,1.558,1.988c0.64,0.713,1.614,0.967,2.703,0.369
			c0.986-0.54,2.307-0.662,2.502-2.026c0.111-0.78-0.063-1.624-0.228-2.415c-0.176-0.843-0.584-1.645-0.707-2.49
			c-0.067-0.467,0.117-1.297,0.41-1.416c0.462-0.188,1.21-0.076,1.657,0.2c0.736,0.454,1.327,1.142,2.112,1.851
			c0.03-0.408,0.048-0.64,0.039-0.525c1.138,0.514,2.356,1.035,3.549,1.613c0.656,0.319,1.172,0.787,2.023,0.818
			c3.154,0.119,5.74-0.816,7.577-3.506c0.698-1.023,1.453-2.016,2.269-2.945c0.327-0.373,0.889-0.542,1.343-0.804
			c0.278,0.538,0.785,1.073,0.793,1.614c0.019,1.375-0.208,2.75-0.279,4.129c-0.015,0.254,0.232,0.523,0.443,0.963
			c1.217-2.069,2.633-3.415,5.054-3.578c0.497,1.477,0.995,2.962,1.543,4.59c2.033-1.162,3.283-3.294,5.819-3.558
			c0.516,1.677,1.025,3.337,1.536,4.997c0.025,0.083,0.088,0.23,0.072,0.24c-1.399,0.811-0.074,2.262-0.759,3.295
			c-0.191,0.291,0.208,0.982,0.354,1.486c0.256,0.887,0.524,1.771,0.827,2.79c0.551,0.075,1.41,0.113,1.008,0.862
			c0.795,0.134,1.555,0.297,2.323,0.381c0.531,0.059,1.087,0.084,1.608-0.009c1.765-0.311,3.666,0.376,5.288-1.046
			c2.01-1.76,4.188-3.329,6.594-5.217c0.226,0.605,0.771,1.354,0.581,1.729c-0.313,0.622-1.085,1.028-1.699,1.478
			c-0.192,0.141-0.714,0.115-0.719,0.189c-0.087,1.34-1.328,1.674-2.086,2.404c-0.357,0.344-0.897,0.497-1.373,0.747
			c0.025,0.113,0.091,0.397,0.19,0.84c-0.566-0.146-0.967-0.25-1.664-0.429c0.354,0.441,0.515,0.645,0.817,1.023
			c-1.67,0.301-3.165,0.57-4.728,0.852c-0.058-0.239-0.116-0.482-0.178-0.743c-0.086,0.03-0.167,0.036-0.22,0.079
			c-0.233,0.188-0.483,0.579-0.682,0.553c-2.52-0.333-5.516,0.158-6.953-2.555c-0.807-1.521-0.936-3.459-1.115-5.236
			c-0.146-1.451,0.142-2.942,0.123-4.416c-0.006-0.482-0.367-0.963-0.566-1.443c-0.452,0.252-0.964,0.438-1.34,0.773
			c-0.381,0.34-0.581,0.876-0.948,1.236c-0.286,0.281-0.707,0.427-1.105,0.654c-0.586,2.099-1.215,4.354-1.883,6.746
			c-0.785-0.08-1.718-0.176-2.621-0.268c0.251-1.896,0.437-3.54,0.692-5.174c0.261-1.66,0.589-3.309-0.348-4.867
			c-1.009,0.818-1.976,1.601-3.003,2.434c0.08,0.074,0.256,0.238,0.29,0.27c-1.21,2.229-2.409,4.438-3.678,6.777
			c0.12-0.03,0.027,0.025-0.052,0.009c-2.357-0.502-2.589-0.991-1.294-3.126c1.087-1.791,1.593-3.722,1.613-5.785
			c0.004-0.397-0.276-0.797-0.493-1.376c-1.62,2.646-3.744,4.071-6.479,4.101c-1.733,0.02-3.509-0.442-5.199-0.926
			c-1.299-0.371-2.486-1.124-3.738-1.674c-0.209-0.092-0.493-0.014-0.669-0.014c0.1,1.189,0.277,2.305,0.252,3.414
			c-0.016,0.654-0.289,1.332-0.569,1.941c-0.145,0.314-0.729,0.771-0.826,0.71c-1.136-0.724-1.279,0.116-1.641,0.863
			c-0.131,0.271-0.698,0.371-1.086,0.472c-2.446,0.635-4.882-0.407-6.224-2.672c-0.529-0.895-1-1.823-1.649-3.018
			c-1.118,0.59-2.449,1.26-3.745,1.989c-0.666,0.376-1.22,0.993-1.916,1.266c-1.73,0.678-3.002-0.213-4.123-1.44
			c-1.518-1.662-2.053-4.518-1.469-6.516c-0.329,0.608-0.94,1.22-0.934,1.825c0.019,1.908-1.249,3.108-2.287,4.345
			c-1.765,2.104-4.262,3.241-6.781,4.154c-2.985,1.084-6.374-0.008-8.057-2.35c-0.064-0.09-0.185-0.251-0.214-0.238
			c-1.307,0.613-1.434-0.703-2.034-1.236C27.976,217.146,27.811,217.002,27.578,216.796z M15.775,240.444
			c2.218,0.442,4.6-0.85,5.238-2.649c0.533-1.504,1.053-3.025,1.391-4.58c0.936-4.298,1.818-8.608,2.624-12.932
			c0.203-1.087-0.288-2.391,0.136-3.324c0.448-0.99-0.05-1.65-0.114-2.48c-0.74,1.766-1.469,3.525-1.968,5.349
			c-0.555,2.021-1.883,3.67-2.445,5.698c-0.541,1.949-1.581,3.754-2.2,5.686C17.471,234.225,16.675,237.293,15.775,240.444z
			 M37.761,187.25c-0.155-0.084-0.311-0.168-0.465-0.252c-1.022,1.869-2.045,3.737-3.067,5.606c0.169,0.092,0.339,0.185,0.509,0.276
			C35.745,191.004,36.753,189.127,37.761,187.25z"/>
		<path fill-rule="evenodd" clip-rule="evenodd" fill="#E5E5E5" d="M182.523,218.805c-1.133,0.421-2.26,0.863-3.402,1.258
			c-3.258,1.125-5.881-0.818-5.823-4.311c0.011-0.689,0.061-1.379,0.112-2.51c-1.609,1.603-2.97,2.925-4.289,4.289
			c-0.705,0.727-1.271,1.6-2.031,2.254c-0.279,0.24-0.94,0.039-1.764,0.039c1.62-1.673,2.904-2.986,4.174-4.312
			c0.928-0.968,1.749-2.06,2.778-2.901c1.015-0.831,1.58-1.814,1.788-3.05c0.345-2.041,0.662-4.084,0.962-5.945
			c-1.117-0.18-2.194-0.207-3.159-0.551c-0.992-0.354-1.874-1.016-2.982-1.643c0.438-0.249,0.84-0.477,1.223-0.693
			c-0.076-0.042-0.354-0.194-1.006-0.552c0.687-0.143,1.039-0.3,1.373-0.27c1.133,0.104,2.271,0.22,3.386,0.438
			c1.28,0.251,1.68-0.298,2.038-1.485c0.876-2.904,1.862-5.789,3.055-8.575c0.519-1.212,1.651-2.161,2.461-3.173
			c1.816,1.033,1.268,2.703,0.967,4.073c-0.589,2.681-1.484,5.293-2.25,7.935c-0.033,0.115-0.041,0.238-0.08,0.471
			c1.867-0.364,3.66-0.676,5.435-1.07c1.659-0.369,2.257,0.25,1.818,1.973c-0.078,0.307-0.118,0.623-0.163,0.874
			c-2.641,0.456-5.215,0.87-7.771,1.376c-0.407,0.082-0.925,0.511-1.065,0.897c-0.918,2.529-1.387,5.229-3.134,7.427
			c-0.834,1.052-0.512,5.66,0.48,6.545c0.498,0.444,1.311,0.541,1.985,0.783c0.281,0.103,0.574,0.174,1.132,0.337
			c1.275-0.847,2.749-1.87,4.265-2.825c3.235-2.039,5.621-4.652,6.815-8.428c1.629-5.148,3.514-10.219,5.402-15.279
			c0.526-1.408,1.455-2.667,2.254-4.092c1.482,1.049,1.394,2.176,1.051,3.455c-0.764,2.85-1.252,5.787-2.22,8.562
			c-0.856,2.453-2.207,4.734-3.344,7.09c-0.175,0.365-0.37,0.721-0.771,1.492c0.791-0.373,1.276-0.521,1.665-0.803
			c0.636-0.459,1.172-0.435,1.776,0.047c0.61,0.486,1.431,0.794,1.865,1.393c0.371,0.511,0.499,1.343,0.429,1.999
			c-0.21,1.942-0.678,3.861-0.825,5.806c-0.063,0.842,0.364,1.74,0.669,2.576c0.094,0.256,0.496,0.5,0.797,0.563
			c2.645,0.562,5.253,0.599,7.71-0.765c1.46-0.809,2.938-1.594,4.348-2.484c0.365-0.23,0.724-0.824,0.711-1.242
			c-0.093-3.285,1.284-6.018,3.188-8.518c0.432-0.567,1.304-0.799,2.297-1.371c0.144,0.852,0.365,1.545,0.354,2.234
			c-0.022,1.229,0.1,2.574-0.356,3.652c-0.699,1.654-1.853,3.113-2.776,4.676c-0.175,0.297-0.366,0.852-0.227,1.021
			c0.651,0.792,1.287,1.766,2.162,2.176c3.343,1.561,6.673,1.015,9.632-0.945c2.187-1.449,4.091-3.327,6.098-5.041
			c1.243-1.061,2.432-2.188,3.669-3.255c0.801-0.692,3.289-0.395,4.14,0.479c0.615,0.633,0.926,1.506,2.072,1.668
			c0.37,0.053,0.932,1.513,0.742,2.123c-0.303,0.977-0.441,1.887-0.338,2.873c0.197,1.865,0.39,3.729,0.92,5.617
			c1.145-1.67,2.138-3.472,3.469-4.974c1.566-1.765,3.436-3.257,5.149-4.891c0.733-0.698,1.512-1.386,2.084-2.206
			c0.792-1.141,1.682-0.074,2.484-0.139c0.831-0.066,2.069,0.591,2.526,1.313c0.568,0.897,0.559,2.181,0.723,3.308
			c0.176,1.206,0.019,2.529,0.479,3.598c0.261,0.603,1.439,0.966,2.266,1.129c1.146,0.227,2.35,0.191,3.528,0.208
			c0.324,0.005,0.662-0.181,0.978-0.318c2.766-1.2,4.203-3.54,5.288-6.184c0.186-0.453,0.426-0.884,0.703-1.454
			c1.486,1.139,0.836,2.531,0.433,3.581c-0.637,1.655-0.83,3.058,0.627,4.304c0.232,0.199,0.606,0.221,0.892,0.37
			c1.377,0.716,2.689,0.737,3.977-0.243c1.523-1.162,3.238-2.096,3.668-4.258c0.21-1.061,0.768-2.052,1.168-3.074
			c0.217,0.051,0.434,0.101,0.65,0.15c-0.096,1.584-0.262,3.168-0.25,4.752c0.004,0.65,0.189,1.61,0.634,1.894
			c1.714,1.091,3.554,2.077,5.696,1.802c0.576-0.074,1.146-0.529,1.623-0.926c0.488-0.406,0.825-0.99,1.286-1.438
			c1.076-1.044,1.549-2.231,1.435-3.781c-0.068-0.906,0.355-1.849,0.583-2.891c0.969,0.834,1.638,1.434,2.335,1.998
			c0.204,0.166,0.485,0.336,0.731,0.336c1.737,0.01,3.608,0.383,5.177-0.141c2.307-0.77,4.716-0.896,7.029-1.861
			c3.762-1.57,7.089-3.689,10.311-6.061c1.06,0.986,0.928,1.556-0.329,2.331c-1.219,0.751-2.324,1.681-3.54,2.437
			c-1.717,1.066-3.455,2.111-5.252,3.031c-1.026,0.527-2.181,0.816-3.294,1.161c-1.144,0.354-2.298,0.698-3.468,0.946
			c-1.27,0.27-2.572,0.635-3.842,0.575c-1.633-0.075-3.248-0.53-4.453-0.746c-1.093,1.466-2.044,2.743-2.996,4.021
			c-0.324,0.438-0.628,0.892-0.98,1.304c-0.948,1.108-1.747,2.38-3.634,1.487c-1.125-0.533-2.557-0.443-3.65-1.016
			c-1.224-0.641-2.221-1.715-3.328-2.609c-1.809,0.902-2.808,4.026-5.724,3.441c-2.428-0.486-5.047-1.213-5.345-4.662
			c-0.568,0.641-1.016,1.13-1.449,1.631c-1.977,2.287-4.548,2.385-7.255,1.969c-0.402-0.062-0.794-0.188-1.196-0.244
			c-2.321-0.318-2.99-1.117-2.909-3.484c0.016-0.447,0.003-0.895,0.003-1.006c-1.396,1.122-2.789,2.619-4.498,3.51
			c-1.743,0.908-4.094,0.091-3.866-2.715c0.032-0.404,0.004-0.814,0.004-1.205c-2.4,2.365-4.691,4.822-6.423,8.209
			c0.913,3.55,0.051,7.477-0.867,11.365c-0.423,1.787-1.132,3.529-1.92,5.193c-0.367,0.773-1.139,1.507-1.909,1.877
			c-0.473,0.227-1.47-0.07-1.923-0.477c-1.716-1.539-1.845-3.715-1.485-5.727c0.396-2.222,1.114-4.445,2.069-6.491
			c0.768-1.643,2.037-3.07,3.198-4.501c0.75-0.922,0.85-1.906,0.699-2.965c-0.299-2.113-0.651-4.22-0.998-6.434
			c-0.547,0.377-1.17,0.764-1.746,1.209c-1.87,1.443-4.555,2.02-6.419,0.427c-0.541-0.462-0.834-0.728-0.682-1.406
			c0.05-0.22-0.029-0.47-0.059-0.794c-1.167,0.928-2.146,1.881-3.284,2.566c-1.641,0.985-3.309,2.129-5.121,2.577
			c-4.559,1.13-7.586,0.182-10.423-3.505c-1.768,0.964-3.626,1.775-5.255,2.916c-2.117,1.483-4.389,1.551-6.777,1.326
			c-0.526-0.049-1.058-0.055-1.584-0.105c-2.026-0.194-2.266-1.799-2.566-3.318c-0.508-2.566-0.611-5.121,0.111-7.688
			c0.113-0.401-0.245-1.067-0.584-1.42c-0.233-0.241-0.884-0.323-1.223-0.181c-1.9,0.8-3.211,2.256-4.484,3.863
			c-1.405,1.776-2.515,3.66-3.381,5.729c-0.089,0.213-0.602,0.477-0.718,0.402c-0.254-0.162-0.58-0.573-0.525-0.799
			c0.288-1.199,0.685-2.374,1.013-3.459c-1.105,0.902-2.345,1.912-3.584,2.924C182.689,218.644,182.606,218.725,182.523,218.805z
			 M241.892,228.107c-0.246-0.079-0.492-0.158-0.738-0.236c-0.888,1.484-1.659,3.055-2.688,4.434
			c-1.633,2.19-2.425,4.47-1.906,7.243c0.188,1.004,0.635,1.763,1.399,1.94c0.375,0.088,1.254-0.846,1.479-1.471
			c0.64-1.777,1.168-3.614,1.535-5.469C241.395,232.424,241.596,230.256,241.892,228.107z M240.29,214.422
			c-0.593-0.428-1.235-0.754-1.695-1.25c-0.894-0.964-1.744-0.912-2.784-0.248c-1.641,1.048-2.792,2.428-3.271,4.338
			C235.043,218.69,238.661,217.305,240.29,214.422z M257.56,214.373c0.202-0.167,0.405-0.333,0.607-0.5
			c-0.429-0.148-0.857-0.414-1.289-0.42c-1.038-0.018-2.277-0.246-3.064,0.227c-0.945,0.567-1.549,1.744-2.213,2.717
			c-0.327,0.48-0.676,1.109-0.638,1.645c0.112,1.604,0.634,1.747,2.279,1.152C255.566,218.354,256.954,216.744,257.56,214.373z
			 M181.838,189.809c-0.146-0.069-0.291-0.139-0.438-0.208c-2.701,2.874-3.845,6.422-4.474,10.249
			c1.442,0.202,1.824-0.039,2.231-1.35C180.061,195.605,180.946,192.707,181.838,189.809z M197.463,190.956
			c-2.776,4.542-3.635,9.471-4.98,14.233C195.255,200.914,196.689,196.182,197.463,190.956z M216.01,208.209
			c-2.574,1.906-2.9,4.559-3.322,7.168C214.345,213.324,216.551,211.532,216.01,208.209z M176.25,206.432
			c0.447-1.228,0.804-2.205,1.181-3.241C176.128,203.31,176.098,203.397,176.25,206.432z"/>
		<path fill-rule="evenodd" clip-rule="evenodd" fill="#E5E5E5" d="M153.039,258.434c0.177-2.39,0.901-4.244,3.408-4.551
			c1.595,1.434,3.118,2.805,4.723,4.248c0.803-1.557,1.906-2.053,3.479-1.596c0.446,0.129,1.004-0.193,1.506-0.173
			c1.208,0.052,1.781,1.511,1.779,2.767c-0.003,1.434-0.924,2.424-1.151,3.637c-0.237,1.258,0.095,2.627,0.207,3.945
			c0.105,1.252,0.221,2.506,0.391,3.751c0.056,0.405,0.396,0.775,0.437,1.179c0.118,1.196,0.189,2.4,0.209,3.604
			c0.026,1.549-0.068,3.102-0.019,4.648c0.086,2.637,0.228,5.273,0.387,7.908c0.03,0.488,0.255,0.965,0.413,1.535
			c1.253-0.225,1.88,0.682,2.662,1.507c0.678,0.716,1.646,1.152,2.467,1.736c0.981,0.696,1.956,1.403,2.91,2.134
			c2.517,1.929,4.008,4.747,6.074,7.066c0.221,0.248,0.229,0.684,0.343,1.03c0.365,1.099,0.903,2.173,1.065,3.301
			c0.341,2.362,1.04,4.876,0.546,7.094c-0.439,1.97-1.398,4.385-4.119,4.912c-0.601,0.116-1.12,0.611-1.696,0.897
			c-0.272,0.136-0.718,0.359-0.865,0.249c-1.466-1.096-3.01-0.258-4.504-0.215c-2.707,0.08-5.412,0.229-8.114,0.424
			c-2.511,0.18-5.013,0.502-7.525,0.675c-2.197,0.15-4.405,0.151-6.604,0.279c-0.72,0.043-1.424,0.313-2.144,0.421
			c-1.046,0.158-2.001,0.342-3.156-0.048c-1.417-0.479-3.065-0.242-4.604-0.4c-1.596-0.164-3.176-0.466-4.771-0.646
			c-1.874-0.211-2.753-1.493-3.374-3.047c-0.502-1.251-1.34-2.544-1.299-3.795c0.058-1.758,0.528-3.621,1.299-5.208
			c0.955-1.968,2.357-3.729,3.646-5.52c0.783-1.089,1.687-2.095,2.6-3.08c0.364-0.395,0.908-0.619,1.354-0.943
			c1.767-1.286,4.055-2.048,5.019-4.157c0.51-1.113,0.417-2.511,0.558-3.784c0.271-2.47,0.537-4.941,0.768-7.416
			c0.277-2.989,0.565-5.98,0.761-8.977c0.245-3.793,0.371-7.592,0.609-11.385C148.834,260.449,151.004,258.932,153.039,258.434z
			 M181.712,303.58c-0.738-1.084-1.321-2.006-1.973-2.878c-0.616-0.823-1.249-1.648-1.974-2.375
			c-1.082-1.086-2.18-2.179-3.401-3.095c-1.178-0.883-2.608-1.434-3.766-2.34c-1.074-0.84-3.184-1.048-2.456-3.062
			c-0.484-0.213-1.185-0.316-1.258-0.588c-0.264-0.975-0.326-2.004-0.444-3.015c-0.279-2.371-0.367-4.722-0.231-7.134
			c0.168-2.988-0.218-6.017-0.465-9.02c-0.148-1.794-0.491-3.571-0.736-5.289c-5.228,1.39-9.927-0.317-14.722-1.934
			c0,0.727,0.027,1.472-0.004,2.213c-0.173,4.033-0.309,8.07-0.563,12.098c-0.133,2.103-0.476,4.191-0.743,6.283
			c-0.239,1.877-0.668,3.744-0.716,5.623c-0.051,1.929,0.552,3.891-0.916,5.602c-0.44,0.516-0.485,1.457-0.987,1.814
			c-2.702,1.926-5.806,3.316-7.836,6.119c0.525,0.665,1.293,0.847,2.034,0.51c1.523-0.689,3.039-1.318,4.794-1.298
			c2.095,0.023,4.191-0.18,6.288-0.276c0.251-0.012,0.655,0.131,0.731,0.021c0.647-0.927,1.02-0.108,1.473,0.191
			c0.169-0.22,0.337-0.44,0.571-0.748c0.082,0.401,0.134,0.656,0.182,0.893c0.266-0.194,0.501-0.368,0.746-0.548
			c-1.654-1.48-1.876-4.035-0.549-5.774c1.589-2.082,3.135-2.594,4.826-1.562c0.181,0.109,0.25,0.404,0.37,0.612
			c-0.206,0.101-0.446,0.327-0.613,0.28c-1.93-0.527-2.842,0.676-3.655,2.083c-0.637,1.102-0.052,2.923,0.948,2.798
			c1.368-0.171,2.729-0.468,4.055-0.846c0.397-0.112,0.843-0.627,0.96-1.044c0.383-1.353,0.293-2.668-0.692-3.816
			c-0.389-0.451-0.673-0.99-1.086-1.61c1.082-0.437,1.784-0.518,2.165,0.609c0.123,0.366,0.346,0.729,0.609,1.014
			c1.574,1.703,1.262,4.345-0.666,5.671c-0.357,0.244-0.611,0.636-1.152,1.219c1.754-0.447,3.039-0.84,4.599-0.411
			c0.882,0.242,2.284,0.941,3.335-0.154c0.094-0.098,0.41,0,0.616,0.036c0.741,0.132,1.583,0.575,2.198,0.359
			c1.57-0.552,2.689,0.555,4.023,0.804c0.444,0.083,0.834,0.461,1.249,0.703c-0.001-0.039-0.003-0.08-0.004-0.119
			C178.431,302.643,179.986,303.087,181.712,303.58z M135.443,307.485c1.649,0.795,3.136,1.646,4.72,2.229
			c1.12,0.411,2.366,0.546,3.569,0.65c3.011,0.265,6.029,0.619,9.044,0.604c3.037-0.016,6.074-0.425,9.108-0.68
			c3.4-0.283,6.803-0.545,10.195-0.901c1.434-0.15,2.865-0.824,4.258-0.724c2.061,0.149,4.006,0.402,5.63-1.274
			c-0.585-2.081-2.347-2.703-4.141-3.211c-1.278-0.362-2.688-0.373-3.884-0.895c-1.689-0.735-3.363-1.247-5.205-1.177
			c-1.543,0.061-3.088,0.113-4.631,0.172c-2.342,0.092-4.685,0.16-7.023,0.291c-0.957,0.053-1.903,0.264-2.858,0.375
			c-1.323,0.153-2.648,0.299-3.976,0.413c-1.573,0.136-3.149,0.236-4.725,0.347c-0.99,0.069-2.052-0.078-2.956,0.235
			c-1.737,0.599-3.387,1.455-5.101,2.218c-0.146-0.499-0.263-0.894-0.411-1.403C136.492,305.711,136.023,306.502,135.443,307.485z
			 M182.86,308.96c-0.486,0.325-0.935,0.714-1.452,0.952c-0.872,0.403-1.761,0.898-2.688,1.026c-3.81,0.527-7.63,0.975-11.456,1.363
			c-2.152,0.219-4.321,0.305-6.484,0.386c-3.26,0.119-6.435,1.198-9.773,0.574c-2.04-0.381-4.183-0.182-6.253-0.446
			c-1.884-0.24-3.768-0.636-5.586-1.184c-1.366-0.412-2.684-1.079-3.914-1.814c-0.68-0.405-0.799-0.4-1.1,0.33
			c-0.928,2.254-0.178,4.17,1.145,5.919c0.504,0.667,1.286,1.352,2.062,1.542c1.819,0.443,3.708,0.627,5.576,0.854
			c1.95,0.238,3.908,0.552,5.861,0.544c1.048-0.005,2.146-0.319,3.223-0.662c1.329-0.422,2.892-0.098,4.354-0.111
			c2.427-0.022,4.858,0.415,7.274-0.361c1.094-0.351,2.402-0.658,3.459-0.388c3.263,0.839,6.317-0.421,9.451-0.7
			c1.327-0.119,2.563-0.206,3.86,0.048c0.303,0.059,0.753-0.166,1.008-0.398c2.089-1.914,1.908-4.462,1.866-6.958
			C183.293,309.338,183.074,309.205,182.86,308.96z M155.871,262.742c1.552,0.278,2.728,0.641,3.906,0.648
			c0.842,0.006,1.686-0.466,2.529-0.725c-0.35-0.463-0.609-1.137-1.072-1.332c-0.481-0.205-1.193-0.051-1.743,0.13
			c-0.676,0.224-1.21,0.687-2.063,0.452C157.043,261.812,156.468,262.405,155.871,262.742z M153.937,258.033
			c1.849-0.239,3.243-0.42,4.83-0.625c-0.715-0.626-1.376-1.283-2.119-1.831c-0.557-0.409-1.214-0.723-1.638,0.243
			C154.742,256.428,154.432,257.017,153.937,258.033z M160.547,259.645c-0.036-0.131-0.071-0.264-0.106-0.395
			c-1.873-0.492-3.725-0.452-5.555,0.158c0.002,0.182,0.004,0.362,0.006,0.543c1.121-0.054,2.24-0.107,3.389-0.164
			c0.046,0.285,0.096,0.594,0.172,1.074C159.21,260.42,159.879,260.032,160.547,259.645z M163.312,258.423
			c1.076,0.615,1.774,1.843,3.26,1.375C166.117,258.186,164.851,257.61,163.312,258.423z"/>
		<path fill-rule="evenodd" clip-rule="evenodd" fill="#E5E5E5" d="M155.722,208.82c0.219-0.694,0.334-1.404,0.654-2.004
			c0.577-1.082,1.101-2.039,0.276-3.298c-0.518-0.791-0.544-1.897-1.038-2.71c-1.515-2.485-3.807-4.095-6.631-4.543
			c-1.31-0.208-3.039-0.516-4.071,1.099c-0.142,0.222-0.632,0.222-1.107,0.37c-0.107-0.168-0.29-0.455-0.407-0.639
			c-0.638,0.722-1.259,1.424-2.004,2.266c-0.1-0.61-0.155-0.95-0.205-1.262c-0.43,0.606-0.735,1.254-1.227,1.694
			c-2.075,1.86-2.426,4.386-2.682,6.909c-0.212,2.1-0.455,4.246-0.238,6.324c0.225,2.152,0.839,4.301,1.562,6.352
			c0.629,1.787,2.346,2.73,4.078,2.766c3.867,0.078,7.799,0.193,11.426-1.613c2.466-1.229,4.386-3.057,5.951-5.303
			c0.428-0.615,0.92-1.434,1.866-0.9c0.834,0.469,0.732,1.715,0.221,2.64c-1.455,2.634-3.734,4.401-6.232,5.823
			c-1.995,1.135-4.218,1.843-6.607,1.874c-1.753,0.023-3.503,0.382-5.252,0.359c-2.171-0.027-4.02-1.038-5.695-2.372
			c-2.369-1.886-3.146-4.613-3.629-7.365c-0.645-3.678-0.852-7.404,0.256-11.076c0.219-0.727,0.221-1.516,0.412-2.252
			c0.697-2.662,2.646-4.141,5.003-5.238c1.825-0.85,3.571-1.907,5.458-2.574c1.254-0.441,2.61-0.602,4.069-0.162
			c3.517,1.058,6.145,3.206,8.158,6.141c0.567,0.828,1.346,1.885,0.56,3.036c1.025,0.868,0.644,2.163,0.478,3.174
			c-0.168,1.022-0.942,1.952-1.482,2.903c-0.384,0.676-0.855,1.304-1.226,1.985c-0.848,1.56-2.265,2.337-3.859,2.87
			c-0.254,0.084-0.609,0.143-0.818,0.029c-1.493-0.811-3.378-1.006-4.323-2.697c-0.156-0.281-0.311-0.61-0.56-0.774
			c-0.218-0.145-0.567-0.088-0.86-0.118c-0.073,1.41-1.213,1.18-1.871,0.912c-0.792-0.32-1.774-0.986-1.999-1.712
			c-0.451-1.456-0.463-3.052-0.601-4.595c-0.018-0.204,0.245-0.512,0.457-0.645c1.373-0.86,2.724-1.773,4.177-2.474
			c0.496-0.239,1.359-0.087,1.882,0.202c0.581,0.322,1.269,0.769,0.925,1.807c-0.149,0.451,0.147,1.26,0.518,1.632
			c1.004,1.006,0.178,1.976,0.177,2.966c-0.002,0.768,0.051,1.788,0.521,2.225c0.395,0.367,1.479,0.227,2.154,0
			c0.784-0.264,1.452-0.87,2.177-1.317C154.964,209.254,155.43,208.992,155.722,208.82z M144.134,204.245
			c-0.129,0.027-0.258,0.056-0.386,0.083c0.164,1.678,0.328,3.355,0.492,5.033c0.145,0.055,0.289,0.109,0.434,0.163
			c0.894-0.921,1.785-1.843,2.676-2.761c-0.662-0.886-0.522-1.244,0.604-1.609c-1.457-2.391-1.457-2.391-3.328,0.111
			C144.468,204.938,144.301,204.592,144.134,204.245z"/>
		<path fill-rule="evenodd" clip-rule="evenodd" fill="#E5E5E5" d="M176.61,333.794c2.529,0.715,3.922,2.673,4.646,5.202
			c0.479,1.68-0.381,3.289-2.45,3.506c-0.232,0.023-0.516,0.087-0.672,0.238c-2.223,2.158-4.802,2.703-7.741,1.81
			c-0.521-0.157-1.091-0.2-1.639-0.207c-1.63-0.02-2.041-1.004-1.959-2.587c0.52,0.206,0.986,0.391,1.754,0.693
			c-0.137-0.637-0.235-1.063-0.32-1.493c-0.338-1.712-0.513-3.331-0.083-5.159c0.399-1.698-0.112-3.648-0.394-5.459
			c-0.395-2.544-0.948-5.061-1.446-7.651c1.622,1.676,3.792,1.56,5.861,1.77c0.799,0.08,1.7-0.133,2.384,0.172
			c0.973,0.435,1.82,1.182,2.656,1.873c0.576,0.477,1.031,1.094,1.557,1.633c0.923,0.947,0.995,2.292,0.132,3.241
			C178.18,332.161,177.435,332.924,176.61,333.794z M170.111,334.442c0.411-0.179,0.659-0.26,0.881-0.388
			c1.276-0.729,2.468-1.769,3.838-2.124c1.412-0.365,1.612-1.521,2.235-2.377c0.202-0.275-0.159-1.113-0.455-1.569
			c-0.797-1.231-2.113-1.42-3.457-1.588c-1.492-0.187-2.968-0.51-4.465-0.777C169.184,328.687,169.637,331.498,170.111,334.442z
			 M169.684,341.647c-0.1,0.059-0.2,0.117-0.3,0.175c0.211,0.265,0.399,0.731,0.635,0.755c0.935,0.094,1.886,0.106,2.823,0.045
			c1.908-0.125,3.381-1.263,4.976-2.159c1.918-1.08,2.088-2.958,0.229-4.194c-0.744-0.495-1.54-0.909-2.298-1.352
			c-0.92,0.709-1.811,1.394-2.273,1.75c-1.426,0.179-2.422,0.305-3.179,0.399c0.521,1.521,0.987,2.878,1.429,4.167
			C170.503,342.621,170.503,342.621,169.684,341.647z"/>
		<path fill-rule="evenodd" clip-rule="evenodd" fill="#E5E5E5" d="M160.347,340.851c0.169-0.599,0.438-1.041,0.373-1.427
			c-0.14-0.835-0.4-1.662-0.723-2.445c-0.097-0.234-0.575-0.466-0.857-0.443c-2.265,0.187-4.531,0.395-6.781,0.703
			c-0.36,0.048-0.825,0.582-0.934,0.977c-0.336,1.22-0.522,2.481-0.777,3.778c-1.058,0.027-1.276-0.922-1.377-1.662
			c-0.18-1.321-0.289-2.7-0.102-4.008c0.144-1.013,0.893-1.921,1.187-2.931c0.612-2.1,1.049-4.252,1.664-6.351
			c0.35-1.197,0.911-2.332,1.547-3.916c1.679,1.428,3.28,2.387,4.306,3.772c1.094,1.478,1.556,3.406,2.458,5.048
			c0.772,1.406,0.601,3.444,3.045,4.172c-0.791,0.262-1.205,0.398-1.486,0.49c0.312,1.482,0.664,2.952,0.91,4.439
			c0.074,0.447-0.143,0.942-0.227,1.416c-0.586-0.271-1.219-0.476-1.737-0.838C160.53,341.414,160.404,340.948,160.347,340.851z
			 M152.074,334.819c2.224,0,4.214,0.01,6.204-0.006c0.646-0.006,0.975-0.148,0.874-1.023c-0.291-2.513-1.828-4.451-2.839-6.628
			c-0.268-0.574-0.895-0.982-1.527-1.647C153.822,328.822,152.927,331.896,152.074,334.819z"/>
		<path fill-rule="evenodd" clip-rule="evenodd" fill="#E5E5E5" d="M135.379,340.08c2.513,0,4.867,0.006,7.222-0.005
			c0.439-0.003,0.876-0.081,1.315-0.109c0.716-0.043,1.364-0.045,1.407,0.971c0.042,0.978-0.453,1.187-1.284,1.13
			c-3.134-0.215-6.277-0.34-9.393-0.701c-0.473-0.054-1.104-1.155-1.16-1.815c-0.096-1.098,0.201-2.231,0.357-3.347
			c0.305-2.178,0.734-4.346,0.908-6.532c0.154-1.961,0.031-3.941,0.031-5.798c1.663,0.831,1.752,1.329,1.434,3.666
			c-0.314,2.311-0.295,4.664-0.469,6.996c-0.104,1.384-0.316,2.761-0.445,4.144C135.266,339.081,135.342,339.492,135.379,340.08z"/>
		<path fill-rule="evenodd" clip-rule="evenodd" fill="#E5E5E5" d="M174.453,250.754c0.058,0.689,0.129,1.536,0.203,2.425
			c-0.306,0.044-0.613,0.087-1.044,0.147c0.271,0.283,0.472,0.494,0.518,0.541c-0.282,0.439-0.596,0.809-0.778,1.234
			c-0.388,0.9-2.372,1.466-3.213,0.921c-0.28-0.181-0.697-0.14-1.007-0.29c-0.362-0.177-0.676-0.451-1.01-0.686
			c-0.237-0.164-0.5-0.305-0.7-0.506c-0.179-0.177-0.423-0.433-0.406-0.635c0.164-1.994,0.002-4.104,1.561-5.695
			c0.51-0.521,1.124-1.025,1.79-1.289c0.915-0.361,3.233,1.211,3.499,2.199C174.004,249.643,174.229,250.142,174.453,250.754z
			 M173.066,252.472c0.124-0.058,0.246-0.116,0.369-0.175c-0.611-1.076-1.146-2.208-1.865-3.205
			c-0.358-0.496-1.061-1.037-1.604-1.033c-0.779,0.005-1.628,2.265-1.417,3.217c0.07,0.322,0.069,0.789-0.113,1.012
			c-0.494,0.596-0.562,0.715-0.091,1.162c0.23,0.221,0.521,0.381,0.734,0.616c0.703,0.775,1.568,1.15,2.552,0.769
			C172.646,254.44,173.289,253.691,173.066,252.472z"/>
		<path fill-rule="evenodd" clip-rule="evenodd" fill="#E5E5E5" d="M169.407,237.748c0.57-0.088,1.141-0.177,1.866-0.289
			c-0.209,0.25-0.353,0.424-0.34,0.408c0.768,0.606,1.534,1.213,2.3,1.818c-0.116,0.186-0.234,0.372-0.352,0.559
			c-0.158-1.67-1.116-3.384,0.4-5.398c0.337,2.225,0.622,4.096,0.915,6.023c-0.571,0.241-1.417,0.329-1.239,1.594
			c0.101,0.725-3.169,2.854-4.016,2.676c-0.417-0.088-0.739-0.63-1.105-0.966c0.155-0.13,0.31-0.259,0.583-0.486
			c-0.321-0.104-0.563-0.182-0.815-0.263c-0.202-1.91,0.747-3.385,1.788-4.841c0.147-0.205,0.051-0.586,0.066-0.886L169.407,237.748
			z M170.513,243.408c1.45-1.874,1.402-2.209-0.479-3.391C168.488,241.615,168.654,242.795,170.513,243.408z"/>
		<path fill-rule="evenodd" clip-rule="evenodd" fill="#E5E5E5" d="M174.729,230.501c1.042,1.42,0.17,1.811-0.799,2.196
			c0.17,0.408,0.315,0.758,0.563,1.352c2.446-1.586,4.884-3.043,7.9-3.046c-2.761,1.411-5.521,2.823-8.27,4.228
			c-0.202-0.48-2.053-0.82-2.377-0.122c-0.479,1.031-1.341,0.909-2.257,1.001c0.787-0.815,1.573-1.631,2.349-2.438
			c-1.203-1.588-3.232-2.502-4.139-4.438c2.012,0.626,3.796,1.508,5.043,3.224c0.113,0.156,0.757,0.184,0.853,0.052
			C173.998,231.951,174.288,231.312,174.729,230.501z"/>
		<path fill-rule="evenodd" clip-rule="evenodd" fill="#E5E5E5" d="M182.523,218.805c0.083-0.08,0.166-0.161,0.25-0.242
			c0.546,0.963,0.782-0.338,1.273-0.121c0.154,0.316,0.339,0.691,0.532,1.088c-0.342,0.246-0.729,0.525-1.194,0.859
			c0.17,0.07,0.315,0.131,0.187,0.078c-0.177,0.273-0.415,0.643-0.653,1.012l0.008-0.004c-0.738,0.208-1.476,0.416-2.264,0.639
			c-0.564-1.396,1.177-1.463,1.386-2.4C182.119,219.391,182.36,219.106,182.523,218.805z"/>
		<path fill-rule="evenodd" clip-rule="evenodd" fill="#E5E5E5" d="M175.494,224.748c-0.635-0.352-1.196-0.662-1.992-1.104
			c0.533-0.334,1.173-0.937,1.363-0.818c0.515,0.322,1.154,0.946,1.161,1.458c0.009,0.682-0.529,1.372-0.845,2.054
			c-0.032,0.068-0.142,0.141-0.221,0.146c-0.544,0.038-1.09,0.082-1.633,0.058c-0.076-0.004-0.217-0.526-0.193-0.537
			c0.508-0.251,1.045-0.443,1.555-0.689C174.948,225.189,175.168,224.981,175.494,224.748z"/>
		<path fill-rule="evenodd" clip-rule="evenodd" fill="#E5E5E5" d="M182.918,221.479c0.539,0.395,1.081,0.789,1.621,1.185
			c0.189-0.271,0.386-0.55,0.783-1.115c-0.071,0.733-0.108,1.108-0.124,1.271c-1.315,0.238-2.607,0.471-4.282,0.774
			c0.532-0.231,0.722-0.315,0.954-0.417c-0.16-0.168-0.313-0.332-0.432-0.455c0.531-0.445,1.009-0.846,1.487-1.246L182.918,221.479z
			"/>
		<path fill-rule="evenodd" clip-rule="evenodd" fill="#E5E5E5" d="M178.991,238.712c-0.435,0-0.87,0-1.403,0
			c0-0.101,0,0.191,0,0.556c-1.529,0.326-1.414-0.86-1.714-2.124c1.236,0.515,2.503,0.284,3.083,1.606L178.991,238.712z"/>
		<path fill-rule="evenodd" clip-rule="evenodd" fill="#E5E5E5" d="M178.957,238.75c0.233,0.41,0.467,0.82,0.747,1.311
			c0.704-0.152,1.404,0.238,1.669,1.248c-0.828-0.317-1.642-0.551-2.377-0.932c-0.943-0.49-0.108-1.102-0.007-1.663
			C178.991,238.712,178.957,238.75,178.957,238.75z"/>
		<path fill-rule="evenodd" clip-rule="evenodd" fill="#E5E5E5" d="M169.459,237.697c-0.456,0.22-0.912,0.439-1.352,0.65
			c0-1.307,0.584-1.871,1.822-1.656c-0.177,0.359-0.349,0.707-0.521,1.057C169.407,237.748,169.459,237.697,169.459,237.697z"/>
		<path fill-rule="evenodd" clip-rule="evenodd" fill="#FFA1D5" d="M135.443,307.485c0.58-0.983,1.049-1.774,1.614-2.73
			c0.148,0.51,0.265,0.904,0.411,1.403c1.714-0.763,3.363-1.619,5.101-2.218c0.904-0.313,1.966-0.166,2.956-0.235
			c1.575-0.11,3.151-0.211,4.725-0.347c1.327-0.114,2.652-0.26,3.976-0.413c0.955-0.111,1.901-0.322,2.858-0.375
			c2.339-0.131,4.682-0.199,7.023-0.291c1.543-0.059,3.088-0.111,4.631-0.172c1.842-0.07,3.516,0.441,5.205,1.177
			c1.196,0.521,2.605,0.532,3.884,0.895c1.794,0.508,3.556,1.13,4.141,3.211c-1.624,1.677-3.569,1.424-5.63,1.274
			c-1.393-0.101-2.824,0.573-4.258,0.724c-3.393,0.356-6.795,0.618-10.195,0.901c-3.034,0.255-6.071,0.664-9.108,0.68
			c-3.015,0.016-6.033-0.339-9.044-0.604c-1.203-0.104-2.449-0.239-3.569-0.65C138.579,309.132,137.093,308.28,135.443,307.485z"/>
		<path fill-rule="evenodd" clip-rule="evenodd" fill="#FF008C" d="M182.86,308.96c0.214,0.245,0.433,0.378,0.435,0.516
			c0.042,2.496,0.223,5.044-1.866,6.958c-0.255,0.232-0.705,0.457-1.008,0.398c-1.297-0.254-2.533-0.167-3.86-0.048
			c-3.134,0.279-6.188,1.539-9.451,0.7c-1.057-0.271-2.365,0.037-3.459,0.388c-2.416,0.776-4.848,0.339-7.274,0.361
			c-1.463,0.014-3.025-0.311-4.354,0.111c-1.076,0.343-2.175,0.657-3.223,0.662c-1.953,0.008-3.911-0.306-5.861-0.544
			c-1.868-0.228-3.757-0.411-5.576-0.854c-0.776-0.19-1.559-0.875-2.062-1.542c-1.322-1.749-2.072-3.665-1.145-5.919
			c0.301-0.73,0.42-0.735,1.1-0.33c1.23,0.735,2.548,1.402,3.914,1.814c1.818,0.548,3.702,0.943,5.586,1.184
			c2.07,0.265,4.213,0.065,6.253,0.446c3.339,0.624,6.514-0.455,9.773-0.574c2.163-0.081,4.332-0.167,6.484-0.386
			c3.826-0.389,7.646-0.836,11.456-1.363c0.927-0.128,1.815-0.623,2.688-1.026C181.926,309.674,182.374,309.285,182.86,308.96z"/>
		<path fill-rule="evenodd" clip-rule="evenodd" fill="#FF008C" d="M155.871,262.742c0.597-0.337,1.172-0.931,1.557-0.826
			c0.854,0.234,1.388-0.229,2.063-0.452c0.55-0.181,1.262-0.335,1.743-0.13c0.463,0.195,0.723,0.869,1.072,1.332
			c-0.844,0.259-1.688,0.73-2.529,0.725C158.599,263.383,157.423,263.021,155.871,262.742z"/>
		<path fill-rule="evenodd" clip-rule="evenodd" fill="#FF008C" d="M153.937,258.033c0.495-1.017,0.806-1.605,1.073-2.213
			c0.424-0.966,1.081-0.652,1.638-0.243c0.743,0.548,1.404,1.205,2.119,1.831C157.18,257.613,155.785,257.794,153.937,258.033z"/>
		<path fill-rule="evenodd" clip-rule="evenodd" fill="#FF008C" d="M158.452,260.861c-0.076-0.48-0.126-0.789-0.172-1.074
			c-1.148,0.057-2.268,0.11-3.389,0.164c-0.002-0.181-0.004-0.361-0.006-0.543c1.83-0.61,3.682-0.65,5.555-0.158"/>
		<path fill-rule="evenodd" clip-rule="evenodd" fill="#FF008C" d="M173.066,252.472c0.223,1.22-0.42,1.969-1.435,2.362
			c-0.983,0.382-1.849,0.007-2.552-0.769c-0.213-0.235-0.504-0.396-0.734-0.616c-0.472-0.447-0.403-0.566,0.091-1.162
			c0.183-0.223,0.184-0.689,0.113-1.012c-0.211-0.952,0.638-3.212,1.417-3.217c0.543-0.004,1.245,0.537,1.604,1.033
			c0.72,0.997,1.254,2.129,1.865,3.205C173.312,252.355,173.19,252.414,173.066,252.472z"/>
		<path fill-rule="evenodd" clip-rule="evenodd" fill="#FF008C" d="M170.513,243.408c-1.858-0.613-2.024-1.793-0.479-3.391
			C171.915,241.199,171.963,241.534,170.513,243.408z"/>
		<path fill-rule="evenodd" clip-rule="evenodd" fill="#E5E5E5" d="M155.843,288.535c-0.246-0.594-0.438-1.217-0.751-1.773
			c-0.33-0.588-0.801-1.094-1.146-1.673c-0.095-0.157-0.039-0.582,0.083-0.653c0.22-0.129,0.561-0.156,0.814-0.087
			c0.154,0.042,0.244,0.341,0.351,0.53c0.068,0.121,0.079,0.315,0.177,0.374c1.901,1.132,2.09,2.773,1.28,4.61
			c-1.049,2.383-3.095,4.495-5.402,4.127c-1.571-0.25-2.853-2.172-2.384-3.807c0.353-1.229,0.893-2.422,1.49-3.557
			c0.529-1.008,1.456-0.986,2.523-0.461c1.17,0.576,2.477,0.883,2.526,2.604C155.551,288.691,155.697,288.613,155.843,288.535z
			 M152.023,286.724c-0.596,1.028-1.182,1.989-1.716,2.978c-0.54,0.998,0.21,2.655,1.301,2.955c1.192,0.327,2.746-0.703,3.37-2.235
			c0.5-1.227,0.081-2.188-1.246-2.853C153.214,287.308,152.694,287.055,152.023,286.724z"/>
		<path fill-rule="evenodd" clip-rule="evenodd" fill="#E5E5E5" d="M158.681,266.945c1.329,0.824,2.774,1.568,4.04,2.547
			c1.262,0.976,1.277,1.477,0.078,2.763c-2.054,2.2-3.427,3.044-5.777,1.148c-0.786-0.634-1.028-2.282-1.015-3.46
			c0.01-0.896,0.356-2.207,1.919-2.07C158.097,267.888,158.311,267.415,158.681,266.945z M162.607,271.163
			c-0.609-0.481-1.1-0.882-1.604-1.259c-0.289-0.217-0.601-0.404-0.907-0.596c-1.253-0.785-2.29-0.691-2.845,0.254
			c-0.622,1.061-0.266,2.891,0.809,3.377c0.662,0.299,1.621,0.539,2.202,0.271C161.113,272.82,161.744,271.952,162.607,271.163z"/>
		<path fill-rule="evenodd" clip-rule="evenodd" fill="#E5E5E5" d="M163.334,278.891c-0.016-0.021,0.078,0.12,0.191,0.244
			c0.836,0.906,0.896,2.074-0.104,2.696c-1.244,0.774-2.618,1.392-4.009,1.864c-0.952,0.323-2.055-0.866-1.977-1.935
			c0.053-0.701,0.19-1.399,0.197-2.1c0.018-1.863,1.767-2.021,2.822-2.766C161.299,276.299,163.502,277.732,163.334,278.891z
			 M160.446,282.812c0.882-0.82,1.763-1.642,2.644-2.462c-0.953-0.708-1.828-1.589-2.887-2.058c-0.664-0.295-1.58,1.474-1.638,2.801
			C158.512,282.334,159.249,282.518,160.446,282.812z"/>
		<path fill-rule="evenodd" clip-rule="evenodd" fill="#FF008C" d="M152.023,286.724c0.671,0.331,1.19,0.584,1.709,0.845
			c1.327,0.665,1.746,1.626,1.246,2.853c-0.624,1.532-2.178,2.562-3.37,2.235c-1.091-0.3-1.841-1.957-1.301-2.955
			C150.842,288.713,151.428,287.752,152.023,286.724z"/>
		<path fill-rule="evenodd" clip-rule="evenodd" fill="#FF008C" d="M162.607,271.163c-0.863,0.789-1.494,1.657-2.346,2.048
			c-0.581,0.268-1.54,0.027-2.202-0.271c-1.074-0.486-1.431-2.316-0.809-3.377c0.555-0.945,1.592-1.039,2.845-0.254
			c0.307,0.191,0.618,0.379,0.907,0.596C161.508,270.281,161.998,270.682,162.607,271.163z"/>
		<path fill-rule="evenodd" clip-rule="evenodd" fill="#FF008C" d="M160.446,282.812c-1.197-0.295-1.935-0.479-1.881-1.719
			c0.058-1.327,0.974-3.096,1.638-2.801c1.059,0.469,1.934,1.35,2.887,2.058C162.209,281.171,161.328,281.992,160.446,282.812z"/>
	</g>
</g>
<g id="zFDDT9_1_">
	<g>
		<path fill-rule="evenodd" clip-rule="evenodd" fill="#E5E5E5" d="M247.639,391.232c-2.524,0.79-4.779,2.114-7.347,1.213
			c-0.651-0.229-1.082-1.088-1.561-1.221c-1.43,0.719-2.798,1.823-4.305,2.065c-2.356,0.38-4.811,0.269-7.215,0.171
			c-0.938-0.037-1.842-0.788-2.79-0.87c-0.877-0.075-1.803,0.273-2.69,0.495c-2.913,0.729-5.815,1.461-8.869,1.134
			c-1.235-0.133-3.712-2.616-3.798-3.879c-0.138-2.027-0.315-4.052-0.493-6.294c-0.481,0.229-0.923,0.354-1.263,0.612
			c-1.342,1.023-2.529,2.342-4.013,3.06c-1.223,0.593-1.441,1.753-2.226,2.555c-0.471,0.482-0.417,1.481-0.891,1.956
			c-0.363,0.364-1.189,0.354-1.796,0.316c-0.125-0.008-0.282-0.876-0.273-1.344c0.015-0.776,0.151-1.551,0.248-2.432
			c-1.754,1.133-3.492,2.153-5.116,3.33c-1.975,1.43-4.163,2.029-6.549,2.211c-0.749,0.058-1.468,0.473-2.204,0.712
			c-0.603,0.195-1.225,0.541-1.815,0.498c-0.406-0.03-0.73-0.799-1.169-0.902c-0.912-0.211-1.874-0.234-2.818-0.263
			c-0.444-0.013-0.893,0.146-1.529,0.26c-0.508-2.115-1.101-4.589-1.709-7.121c-1.7,1.32-3.409,2.732-5.208,4.019
			c-1.418,1.016-2.899,1.969-4.451,2.752c-0.529,0.269-1.361-0.06-2.055-0.115c-0.046-0.154-0.093-0.307-0.138-0.46
			c0.357-0.371,0.672-0.801,1.081-1.104c3.308-2.444,7.048-4.286,9.804-7.505c1.704-1.99,2.17-4.288,2.575-6.6
			c-1.621,0-3.18-0.005-4.739,0.002c-1.984,0.009-2.299-0.253-2.658-2.228c-0.03-0.173-0.132-0.333-0.227-0.561
			c2.885,0,5.727,0,8.132,0c1.175-2.59,2.211-4.858,3.232-7.135c0.245-0.547,0.543-1.1,0.637-1.679
			c0.401-2.471,2.764-4.967,5.173-5.378c1.361-0.232,2.253,1.012,1.923,2.438c-0.396,1.707-0.363,3.544-0.951,5.167
			c-0.767,2.112-1.963,4.068-2.968,6.095c-0.06,0.118-0.066,0.264-0.193,0.812c2.015,0,3.92-0.077,5.816,0.021
			c2.015,0.104,4.027,0.321,6.026,0.6c0.74,0.104,1.6,0.289,1.557,1.438c-0.054,1.489-0.146,1.499-1.651,1.324
			c-1.863-0.215-3.753-0.188-5.625-0.338c-2.202-0.178-4.401-0.411-6.596-0.665c-0.911-0.104-1.606-0.058-2.155,0.886
			c-0.717,1.236-1.602,2.385-2.496,3.507c-1.065,1.338-1.09,2.862-0.99,4.438c0.094,1.474-0.372,3.049,0.733,4.338
			c0.29,0.339,0.686,0.812,1.048,0.826c1.73,0.067,3.477,0.104,5.195-0.069c0.803-0.08,1.593-0.597,2.319-1.03
			c0.91-0.542,1.751-1.203,2.62-1.812c0.09,0.13,0.18,0.259,0.268,0.39c-0.585,0.479-1.171,0.961-1.755,1.44
			c0.046,0.109,0.093,0.219,0.139,0.329c0.986-0.353,2.069-0.553,2.942-1.09c2.002-1.23,3.958-2.557,5.83-3.979
			c1.766-1.342,3.052-3.147,3.92-5.176c0.368-0.86,0.492-1.894,0.467-2.842c-0.139-5.169,2.597-9.451,4.331-14.023
			c0.491-1.298,1.695-2.344,2.653-3.435c0.286-0.327,1.049-0.695,1.241-0.557c0.521,0.379,1.08,0.963,1.22,1.561
			c0.73,3.132-0.703,5.956-1.435,8.877c-0.356,1.424-0.559,2.934-1.19,4.229c-0.882,1.807-2.07,3.47-3.187,5.154
			c-0.917,1.384-1.92,2.71-3.087,4.345c0.576-0.114,0.847-0.098,1.026-0.217c1.173-0.776,2.321-1.587,3.484-2.377
			c1.954-1.325,3.407-0.719,3.815,1.646c0.197,1.15,0.211,2.332,0.37,3.491c0.196,1.424,0.457,2.839,0.694,4.28
			c0.343,0.025,0.63-0.004,0.888,0.071c2.964,0.868,5.738,0.055,8.47-0.992c0.269-0.104,0.506-0.571,0.561-0.902
			c0.217-1.308,0.348-2.629,0.522-3.943c0.091-0.686,0.122-1.395,0.328-2.048c0.567-1.806,1.829-3.15,3.191-4.383
			c1.097-0.994,2.653-0.601,3.06,0.803c0.427,1.47,0.808,2.98,0.004,4.493c-0.16,0.304-0.06,0.745-0.084,1.175
			c-0.945,1.358-1.966,2.824-3.045,4.373c0.888,0.792,1.917,1.369,3.389,1.133c1.527-0.245,3.194,0.077,4.629-0.383
			c2.365-0.76,4.36-2.06,5.807-4.373c1.052-1.683,2.922-2.907,4.583-4.122c0.542-0.397,1.691-0.394,2.358-0.102
			c1.327,0.579,2.591,1.391,3.697,2.324c0.261,0.218-0.205,1.298-0.346,2.026c1.029,0.28,0.475,1.358,0.383,2.217
			c-0.136,1.264-0.374,2.517-0.611,4.058c2.243-2.085,4.118-4.045,6.222-5.717c2.011-1.598,4.227-2.947,6.415-4.304
			c1.191-0.737,4.307,0.918,4.335,2.237c0.009,0.392-0.249,0.789-0.405,1.247c1.213,0.195,0.731,1.451,0.808,2.37
			c0.05,0.589-0.598,1.476-0.362,1.761c0.678,0.825,1.557,1.77,2.518,2.007c1.367,0.338,2.964,0.374,4.297-0.02
			c0.83-0.245,1.395-1.492,2.012-2.34c0.895-1.232,1.437-2.572,1.52-4.159c0.035-0.666,0.697-1.388,1.251-1.888
			c0.172-0.154,0.952,0.296,1.405,0.556c0.192,0.111,0.374,0.45,0.359,0.674c-0.063,0.983-0.082,1.995-0.335,2.937
			c-0.431,1.606,0.481,3.274,2.146,4.415c1.231,0.845,3.024,0.907,3.939-0.062c1.348-1.43,2.699-2.901,2.897-5.04
			c0.044-0.472,0.29-1.057,0.644-1.337c0.448-0.354,1.163-0.718,1.649-0.602c0.791,0.189,0.851,0.854,0.603,1.707
			c-0.324,1.114-0.597,2.376-0.384,3.475c0.193,1.001,1.044,1.886,1.659,2.785c0.113,0.167,0.481,0.165,0.735,0.232
			c0.671,0.178,1.344,0.352,2.282,0.596c0.398-0.022,1.146-0.127,1.886-0.089c1.202,0.062,2.942-1.421,2.79-2.651
			c-0.18-1.458-0.605-2.887-0.942-4.324c-0.062-0.271-0.2-0.524-0.298-0.774c1.055-1,1.947-1.114,3.32-0.306
			c1.764,1.039,3.887,1.306,5.956,0.871c2.136-0.447,4.241-1.04,6.362-1.562c1.396-0.343,2.072-1.469,2.896-2.49
			c0.312-0.386,1.038-0.437,1.576-0.64c0.13,0.637,0.57,1.43,0.34,1.885c-1.496,2.965-4.137,4.231-7.322,4.56
			c-0.114,0.013-0.258-0.015-0.341,0.045c-1.955,1.407-4.151,0.474-6.23,0.6c-1,0.06-2.024-0.273-2.868-0.403
			c-0.049,0.892,0.075,1.736-0.173,2.45c-0.461,1.329-0.905,2.778-1.78,3.822c-1.361,1.621-3.351,1.487-5.321,1.198
			c-2.815-0.411-5.467-1.013-6.988-4.001c-1.479,2.182-3.178,3.598-6.002,2.934c-2.378-0.56-4.478-1.333-5.546-3.894
			c-0.541,2.911-2.996,2.773-4.85,3.186c-3.058,0.682-6.77-1.157-7.942-3.512c-0.83,0.251-1.638,0.648-2.472,0.709
			c-1.114,0.081-2.273,0.019-3.364-0.217c-0.637-0.136-1.372-0.609-1.701-1.151c-0.314-0.521-0.159-1.324-0.32-2.053
			c-0.651,2.334-3.01,2.968-4.312,4.544c-1.514,1.835-2.286,4.176-2.15,6.694c0.143,2.621,0.301,5.246,0.283,7.868
			c-0.013,1.776-0.022,3.646-0.561,5.302c-0.755,2.326-1.805,4.623-3.154,6.649c-0.399,0.599-2.38,0.613-3.384,0.232
			c-1.763-0.67-2.607-2.367-3.117-4.171c-0.64-2.265-0.666-4.46,0.31-6.679c1.341-3.045,2.442-6.201,3.87-9.203
			c0.63-1.325,1.877-2.342,2.706-3.59c0.435-0.654,0.741-1.491,0.802-2.27C247.99,393.105,247.742,392.138,247.639,391.232z
			 M247.829,399.791c-0.509,0.3-1.186,0.478-1.479,0.913c-0.797,1.192-1.62,2.426-2.087,3.766c-0.753,2.158-1.184,4.428-1.833,6.625
			c-0.693,2.346,0.059,4.354,1.346,6.229c0.647,0.941,1.564,0.819,2.002-0.258c1.089-2.679,2.712-5.207,2.448-8.292
			c-0.084-1.007-0.32-2.066-0.114-3.021C248.562,403.679,247.945,401.719,247.829,399.791z M186.352,363.657
			c-1.15,0.655-2.262,1.029-2.236,2.588c0.012,0.667-0.438,1.462-0.909,1.997c-1.848,2.101-1.789,4.831-2.716,7.255
			c0.564,0.127,0.967,0.218,1.433,0.322C184.373,372.141,185.78,368.13,186.352,363.657z M240.845,389.295
			c0.39,0.333,0.835,1.029,1.295,1.039c1.01,0.021,2.035-0.271,3.04-0.498c1.873-0.421,2.747-1.885,3.543-3.555
			c-1.244-0.342-2.156-2.282-3.789-0.438c-0.642,0.727-2.31,0.97-2.434,1.636C242.282,388.633,241.273,388.499,240.845,389.295z
			 M204.161,378.659c2.89-4.745,4.539-9.953,5.607-15.378C206.203,367.773,205.433,373.31,204.161,378.659z M258.669,389.302
			c0.085,0.114,0.262,0.595,0.502,0.628c1.144,0.16,2.315,0.326,3.453,0.222c0.481-0.045,1.043-0.67,1.317-1.168
			c0.48-0.876,0.77-1.858,1.084-2.661c-0.486-0.312-1.149-0.735-1.696-1.086C261.205,385.794,259.57,386.996,258.669,389.302z
			 M224.108,387.973c2.685-2.399,3.702-5.388,2.47-7.145C225.712,383.335,224.91,385.653,224.108,387.973z"/>
		<path fill-rule="evenodd" clip-rule="evenodd" fill="#E5E5E5" d="M22.737,387.837c0.491,0.403,1.111,0.721,1.449,1.227
			c1.849,2.768,6.375,4.485,9.542,3.532c1.509-0.456,3.111-0.748,4.484-1.469c2.045-1.072,2.947-3.245,3.955-5.172
			c0.726-1.391,1.019-3.012,1.46-4.543c0.304-1.052,1.215-1.325,2.021-0.549c0.271,0.262,0.535,0.539,0.761,0.842
			c1.194,1.603,2.5,1.772,4.096,0.657c0.508-0.355,1.41-0.76,1.802-0.543c0.822,0.454,0.673,1.314,0.359,2.226
			c-0.401,1.173-0.127,2.719-0.792,3.631c-1.239,1.7,0.238,2.679,0.568,3.949c0.181,0.695,0.667,0.883,1.419,0.65
			c1.858-0.576,3.283-1.722,4.392-3.252c1.479-2.039,2.697-4.3,4.378-6.147c1.006-1.106,2.19-2.679,3.994-2.408
			c1.607,0.238,3.17,0.9,4.684,1.538c0.303,0.127,0.46,1.007,0.403,1.509c-0.268,2.36,0.994,3.692,3.365,3.363
			c1.852-0.258,3.758-0.398,5.514-0.975c1.495-0.491,2.898-1.413,4.171-2.374c0.604-0.456,0.79-1.452,1.191-2.19
			c0.354-0.649,0.698-1.317,1.165-1.879c0.075-0.09,0.837,0.262,1.156,0.549c0.222,0.198,0.382,0.681,0.302,0.958
			c-0.29,1-0.804,1.94-1.025,2.949c-0.286,1.311-0.374,2.665-0.28,4.079c0.443-0.652,0.809-1.378,1.345-1.94
			c1.61-1.688,3.25-3.354,4.976-4.92c0.294-0.266,1.126-0.111,1.618,0.082c0.312,0.123,0.681,0.706,0.639,1.032
			c-0.351,2.65-0.791,5.287-1.162,7.658c0.049-0.071,0.429-0.442,0.599-0.894c0.944-2.49,2.524-4.438,4.77-5.866
			c0.301-0.19,0.56-0.503,0.741-0.814c0.578-0.996,1.519-0.84,2.202-0.441c0.462,0.27,0.611,1.1,0.854,1.699
			c0.057,0.137-0.177,0.413-0.109,0.523c1.104,1.805-0.344,3.103-0.992,4.463c-1.117,2.346-0.667,4.351,1.805,5.134
			c1.806,0.572,3.816,0.48,5.729,0.74c1.956,0.266,3.336-0.989,4.9-1.763c0.255-0.126,0.504-0.462,0.717-0.431
			c0.533,0.075,1.186,0.175,1.511,0.524c0.177,0.19-0.071,1.185-0.376,1.346c-1.837,0.972-3.562,2.107-5.727,2.49
			c-3.357,0.595-6.342-0.302-9.279-1.649c-1.977-0.904-3.004-4.626-1.881-6.499c0.582-0.969,1.24-1.906,1.699-2.931
			c0.234-0.525,0.104-1.214,0.144-1.907c-2.48,1.055-6.696,7.555-7.03,10.77c-0.609-0.086-1.66-0.007-1.769-0.289
			c-0.421-1.096-0.863-2.351-0.709-3.464c0.338-2.434,1.034-4.816,1.619-7.367c-2.938,1.394-4.32,3.939-5.935,6.244
			c-0.981,1.4-1.776,2.93-2.725,4.355c-0.295,0.444-0.817,0.737-1.356,1.204c-0.724-1.513-0.411-2.513,0.002-3.655
			c0.616-1.709,1.592-3.432,0.997-5.28c-3.842,2.203-8.029,2.625-11.959,2.691c-0.896,1.787-1.474,3.556-2.547,4.94
			c-1.884,2.432-8.421,1.7-9.892-1.737c-0.227-0.528-0.198-1.164-0.249-1.489c-1.328,0.942-2.652,1.925-4.021,2.841
			c-1.528,1.022-3.345,0.986-4.896,0.492c-0.728-0.231-1.139-1.767-1.491-2.78c-0.414-1.187-0.688-2.438-0.866-3.683
			c-0.094-0.659,0.146-1.366,0.247-2.143c-0.8-0.094-1.49-0.175-2.181-0.256c0.116,0.088,0.233,0.176,0.35,0.264
			c-0.303,0.604-0.487,1.569-0.937,1.714c-0.482,0.156-1.215-0.458-1.889-0.758c-1.675,3.362-3.741,6.777-8.147,7.919
			c-4.249,1.102-8.274,0.85-12.138-1.729c0.196,1.602,0.412,2.979,0.524,4.365c0.159,1.984,0.361,3.977,0.325,5.962
			c-0.034,1.933-0.125,3.914-0.587,5.776c-0.662,2.669-1.665,5.254-2.57,7.857c-0.148,0.426-0.476,0.876-0.847,1.12
			c-1.387,0.909-2.734,1.998-4.267,2.534c-2.137,0.747-4.399-1.655-4.199-4.188c0.09-1.136,0.147-2.274,0.243-3.41
			c0.323-3.795,1.397-7.379,2.932-10.856c0.597-1.352,0.897-2.832,1.354-4.247c0.729-2.254,1.449-4.512,2.225-6.75
			c0.886-2.561,1.818-5.105,2.751-7.649c0.342-0.933,0.737-1.844,1.253-3.122c-0.841,0.764-1.468,1.216-1.951,1.789
			c-3.814,4.523-8.829,7.416-13.882,10.252c-0.693,0.391-1.47,0.66-2.236,0.888c-1.808,0.538-1.814,0.515-3.014-1.249
			c5.086-0.66,8.842-3.722,12.723-6.646c3.924-2.956,7.197-6.553,10.558-10.075c1.246-1.304,1.922-2.896,2.192-4.692
			c0.072-0.486,0.496-0.925,0.775-1.374c0.062-0.102,0.294-0.187,0.281-0.235c-0.572-2.133,1.387-3.332,1.898-5.083
			c0.514-1.756,1.506-3.367,2.24-5.062c0.367-0.848,1.015-1.065,1.701-0.658c0.357,0.212,0.718,0.945,0.615,1.318
			c-0.847,3.134-1.41,6.431-2.823,9.302c-1.8,3.659-4.482,6.874-6.462,10.458c-1.568,2.841-2.651,5.949-3.95,8.939
			C22.431,387.747,22.584,387.792,22.737,387.837z M22.329,389.919c-0.146,0.004-0.293,0.009-0.438,0.014
			c-0.438,1.315-1.148,2.609-1.258,3.951c-0.271,3.352-1.554,6.396-2.768,9.411c-1.294,3.22-2.172,6.503-2.712,9.89
			c-0.198,1.24-0.119,2.55,0.027,3.805c0.05,0.432,0.753,1.175,1.044,1.125c1.616-0.282,3.256-0.631,3.916-2.514
			c0.481-1.375,1.279-2.666,1.587-4.071c0.579-2.648,0.893-5.354,1.343-8.03c0.314-1.874,0.316-3.704-0.099-5.589
			c-0.321-1.453-0.259-2.99-0.371-4.489C22.514,392.253,22.42,391.086,22.329,389.919z M62.205,389.212
			c0.167,1.54,0.632,2.642,1.953,3.189c0.213,0.089,0.453,0.121,0.661,0.22c3.15,1.497,5.488-0.761,6.267-3.387
			c0.173-0.583,0.059-1.199-0.874-1.279c-0.452-0.039-1.116-0.399-1.254-0.773c-0.422-1.144-0.641-2.361-0.926-3.554
			c-0.29-1.202-1.079-1.642-2.041-0.983C63.623,384.266,62.681,386.717,62.205,389.212z"/>
		<path fill-rule="evenodd" clip-rule="evenodd" fill="#E5E5E5" d="M150.193,434.689c-0.343-0.727-0.632-1.34-0.808-1.711
			c0.595-0.523,1.096-0.965,1.595-1.407c1.512-1.339,3.305-1.615,5.208-1.281c3.71,0.649,7.417,1.318,11.108,2.061
			c0.578,0.117,1.07,0.665,1.626,1.029c0.249,1.991,0.535,4.101,0.768,6.218c0.117,1.071,0.137,2.155,0.196,3.233
			c0.136,2.449,0.139,4.916,0.44,7.346c0.269,2.159-0.2,4.392,0.898,6.502c0.525,1.01,0.5,2.348,0.568,3.545
			c0.111,1.925,1.165,3.143,2.799,3.876c1.728,0.776,2.968,2.115,4.319,3.35c1.447,1.322,3.095,2.45,4.406,3.89
			c1.538,1.688,2.842,3.595,4.181,5.454c0.576,0.801,1.106,1.678,1.438,2.6c0.269,0.747,0.236,1.611,0.285,2.428
			c0.073,1.197,0.139,2.396,0.136,3.595c-0.003,1.365,0.01,2.744-0.173,4.092c-0.079,0.582-0.683,1.075-0.958,1.651
			c-1.358,2.849-3.89,4.126-6.716,4.888c-1.87,0.503-3.808,0.79-5.73,1.058c-2.185,0.305-4.384,0.538-6.584,0.697
			c-2.342,0.167-4.692,0.282-7.039,0.285c-1.404,0.002-2.807-0.342-4.214-0.375c-1.904-0.043-3.822-0.058-5.715,0.129
			c-5.023,0.494-9.936-0.331-14.828-1.204c-1.843-0.328-3.961-0.606-4.692-2.883c-0.359-1.12-0.95-2.283-0.885-3.394
			c0.126-2.141,0.404-4.334,1.071-6.356c0.561-1.702,1.786-3.178,2.678-4.775c1.854-3.322,4.593-5.731,7.781-7.704
			c0.942-0.583,1.839-1.243,2.726-1.909c0.22-0.165,0.392-0.471,0.462-0.744c0.473-1.849,1.063-3.693,1.228-5.573
			c0.03-0.355-0.115-1.001-0.074-1.585c0.32-4.472,0.508-8.954,0.842-13.425c0.29-3.905,0.708-7.802,1.09-11.7
			C149.695,435.877,148.82,434.79,150.193,434.689z M137.182,480.019c-0.728,1.669-1.498,3.015-1.905,4.461
			c-0.737,2.624-1.223,5.248-0.663,8.07c0.31,1.562,1.202,2.077,2.317,2.382c1.638,0.451,3.347,0.723,5.043,0.87
			c1.814,0.157,3.649,0.109,5.474,0.101c3.337-0.017,6.674-0.096,10.01-0.099c2.946-0.003,5.893,0.126,8.836,0.075
			c2.327-0.041,4.664-0.152,6.97-0.439c2.403-0.3,4.764-0.934,7.164-1.266c3.831-0.53,6.622-3.339,6.866-7.199
			c0.111-1.754,0.062-3.518,0.055-5.276c-0.001-0.304-0.152-0.604-0.181-0.708c-1.431,0.838-2.742,1.78-4.188,2.414
			c-2.397,1.051-4.854,1.988-7.341,2.803c-1.229,0.401-2.58,0.438-3.88,0.607c-2.662,0.349-5.321,0.743-7.994,0.986
			c-1.372,0.124-2.84-0.328-4.141-0.01c-2.63,0.643-5.229,0.845-7.842,0.246c-2.048-0.469-4.143-0.235-6.159-1.528
			C142.711,484.643,139.597,483.13,137.182,480.019z M151.761,437.233c-0.245,2.571-0.476,4.959-0.696,7.35
			c-0.072,0.783-0.15,1.57-0.154,2.356c-0.002,0.337,0.269,0.676,0.264,1.011c-0.032,2.08-0.029,4.168-0.189,6.24
			c-0.179,2.325-0.507,4.64-0.791,6.957c-0.196,1.602-0.478,3.194-0.621,4.801c-0.098,1.07,0.046,2.162-0.037,3.234
			c-0.112,1.44-1.119,1.868-2.403,1.907c-0.107,0.003-0.201,0.192-0.318,0.271c-1.138,0.772-2.302,1.509-3.412,2.316
			c-0.976,0.709-1.894,1.497-2.585,2.05c4.951-1.139,10.096-2.322,15.26-3.51c-0.033-2.871,0.762-4.874,4.358-5.233
			c0.338,1.569,0.68,3.156,1.071,4.975c1.727-0.111,3.746-0.379,5.76-0.335c2.836,0.06,5.672,0.288,8.497,0.562
			c1.757,0.17,3.507,0.495,5.232,0.873c0.681,0.148,1.289,0.63,1.929,0.96c-2.91-3.814-6.233-7.104-10.335-9.295
			c-0.257,0.213-0.453,0.517-0.646,0.516c-1.096-0.006-1.622-0.514-1.764-1.695c-0.237-1.99-0.683-3.957-1.074-5.927
			c-0.253-1.274-0.684-2.524-0.823-3.809c-0.203-1.854-0.157-3.735-0.319-5.597c-0.239-2.754-0.56-5.5-0.86-8.247
			c-0.115-1.051-0.271-2.098-0.397-3.059c-1.432-0.166-0.807,0.7-0.967,1.203c-0.334,1.053-0.927,2.024-1.244,3.081
			c-0.841,2.789-2.6,3.537-5.226,2.17c-2.21-1.15-2.383-2.635-0.809-4.691c0.684-0.893,1.86-1.408,2.78-2.073
			c-2.999-0.085-5.927-0.683-8.604-2.329c-0.07,0.11-0.14,0.222-0.21,0.331c0.798,1.604,1.597,3.208,2.395,4.812
			c-0.109,0.064-0.218,0.128-0.327,0.191C153.625,438.849,152.756,438.096,151.761,437.233z M138.519,478.489
			c0.535,0.774,0.948,1.519,1.499,2.143c2.053,2.33,4.857,3.693,7.649,4.55c3.037,0.93,6.363,1.087,9.578,1.228
			c2.552,0.111,5.125-0.34,7.692-0.478c0.825-0.045,1.675,0.235,2.488,0.147c1.719-0.187,3.414-0.695,5.129-0.754
			c4.339-0.15,8.136-2.056,12.041-3.571c0.872-0.338,1.979-1.404,2.026-2.192c0.058-0.958-0.653-2.522-1.448-2.872
			c-2.654-1.164-5.474-1.97-8.271-2.776c-1.315-0.38-2.716-0.524-4.088-0.631c-1.37-0.107-2.756-0.06-4.135-0.033
			c-2.089,0.039-4.18,0.084-6.267,0.19c-1.596,0.081-3.188,0.236-4.777,0.401c-2.076,0.217-4.156,0.423-6.22,0.735
			c-1.591,0.241-3.144,0.805-4.737,0.935C143.715,475.752,141.048,476.659,138.519,478.489z M165.631,433.464
			c0.002-0.216,0.004-0.433,0.006-0.648c-3.392-0.417-6.782-0.845-10.177-1.229c-0.34-0.039-0.753,0.125-1.055,0.318
			c-0.367,0.235-0.651,0.6-0.972,0.909c0.299,0.269,0.558,0.693,0.901,0.778c1.792,0.45,3.616,0.769,5.408,1.216
			C161.975,435.365,163.786,434.381,165.631,433.464z M161.84,436.294c1.1,1.27,1.405,2.342,0.777,3.519
			c-0.124-0.501-0.232-0.945-0.442-1.799c-1.025,0.807-1.993,1.356-2.639,2.164c-0.341,0.426-0.408,1.543-0.09,1.922
			c0.652,0.776,3.158,0.081,3.606-0.924c0.539-1.208,0.959-2.469,1.466-3.803C163.509,436.966,162.674,436.63,161.84,436.294z
			 M157.093,471.213c0.136,0.189,0.271,0.381,0.405,0.57c0.82-0.191,1.643-0.383,2.463-0.574c-0.312-0.863-0.622-1.726-0.934-2.588
			c-0.195,0.002-0.39,0.003-0.585,0.005C157.992,469.489,157.543,470.352,157.093,471.213z"/>
		<path fill-rule="evenodd" clip-rule="evenodd" fill="#E5E5E5" d="M145.861,381.297c0.55,0.558,1.218,0.936,1.391,1.474
			c0.373,1.161,1.03,1.085,1.833,0.658c4.498-2.384,5.383-7.228,1.279-10.847c-1.976-1.743-3.389-1.496-5.913-0.509
			c-2.302,0.899-3.943,2.49-5.479,4.177c-0.813,0.895-1.118,2.365-1.369,3.631c-0.291,1.471-0.327,3-0.377,4.507
			c-0.132,4.012,3.155,8.811,6.644,9.186c3.741,0.401,7.542,0.387,11.19-0.872c0.419-0.146,0.784-0.518,1.111-0.848
			c0.827-0.835,1.691-1.231,2.86-0.226c0.151,1.003-0.389,1.717-1.372,2.393c-2.565,1.761-5.536,1.984-8.445,2.271
			c-1.972,0.193-4.017,0.046-5.983-0.251c-1.716-0.259-3.322-0.941-4.196-2.73c-0.272-0.557-0.948-0.961-1.514-1.318
			c-2.05-1.296-2.303-3.431-2.662-5.523c-0.458-2.677-0.272-5.397,0.507-7.911c0.562-1.812,2.003-3.362,3.106-4.99
			c0.418-0.616,0.977-1.14,1.496-1.682c1.146-1.197,2.507-1.969,4.188-2.17c0.747-0.09,1.479-0.32,2.209-0.52
			c1.408-0.383,2.708-0.234,3.821,0.771c1.233,1.114,2.516,2.189,3.632,3.412c0.469,0.512,0.604,1.35,0.824,2.061
			c0.315,1.017,0.576,2.052,0.844,3.085c0.047,0.178,0.08,0.428-0.008,0.561c-0.801,1.193-1.617,2.378-2.457,3.545
			c-0.276,0.384-0.634,0.709-0.852,0.949c-0.809,0.598-1.357,1.121-2.002,1.459c-1.705,0.894-3.375,1.146-4.864-0.508
			c-0.119-0.132-0.889,0.02-1,0.229c-0.753,1.415-2.201,1.032-3.355,1.327c-0.317,0.081-0.925-0.339-1.164-0.69
			c-1.31-1.921-0.249-4.935,1.976-5.846c0.514-0.209,0.951-0.63,1.474-0.792c0.874-0.27,1.67-0.266,2.411,0.564
			C146.373,380.139,146.087,380.775,145.861,381.297z M141.67,384.762c0.901-0.66,1.82-1.285,2.68-1.981
			c0.646-0.522,0.849-1.257,0.224-1.883c-0.371-0.372-1.098-0.816-1.473-0.684C141.657,380.725,140.939,383.188,141.67,384.762z"/>
		<path fill-rule="evenodd" clip-rule="evenodd" fill="#E5E5E5" d="M179.256,509.714c1.632,0.991,3.049,2.079,4.644,2.745
			c1.179,0.492,1.924,1.082,1.645,2.295c-0.685,2.966-2.194,5.554-4.956,6.902c-1.441,0.703-3.299,0.598-4.979,0.749
			c-1.636,0.148-3.283,0.194-4.926,0.21c-0.516,0.006-1.033-0.229-1.912-0.44c0.602-0.294,0.857-0.418,0.933-0.455
			c-0.122-0.668-0.262-1.251-0.323-1.84c-0.032-0.319,0.11-0.654,0.101-0.979c-0.125-4.287-0.251-8.572-0.406-12.857
			c-0.052-1.429-0.141-2.858-0.293-4.279c-0.114-1.062,0.459-1.553,1.346-1.587c2.521-0.093,5.079-0.336,7.556-0.012
			c1.436,0.188,2.745,1.355,4.101,2.101c0.083,0.046,0.123,0.272,0.097,0.397c-0.305,1.517-0.482,3.079-0.993,4.523
			C180.534,508.19,179.716,509.027,179.256,509.714z M171.469,518.046c-0.154,2.197,0.533,3.015,2.317,2.911
			c1.268-0.074,2.534-0.228,3.802-0.232c3.854-0.017,4.149-1.415,5.146-4.533c0.359-1.125-0.009-2.103-1.04-2.658
			c-1.126-0.608-2.312-1.118-3.508-1.577c-1.827-0.699-3.534,0.244-5.262,0.586c-0.555,0.109-1.311,0.85-1.39,1.389
			C171.334,515.275,171.469,516.671,171.469,518.046z M170.495,501.529c0.253,2.424,0.452,4.687,0.731,6.938
			c0.343,2.768,0.371,2.765,3.108,2.227c2.935-0.575,5.225-2.962,5.481-5.865c0.045-0.507-0.26-1.231-0.651-1.554
			c-0.978-0.802-2.044-1.42-3.452-1.397C173.99,501.904,172.265,501.659,170.495,501.529z"/>
		<path fill-rule="evenodd" clip-rule="evenodd" fill="#E5E5E5" d="M160.106,499.868c0.328,1.252,0.668,2.421,0.933,3.607
			c0.164,0.736-0.012,1.998,0.355,2.165c1.705,0.774,0.394,2.866,1.809,3.708c0.247,0.146,0.37,1.017,0.177,1.305
			c-1.294,1.929-0.661,3.857-0.176,5.813c0.122,0.492,0.115,1.019,0.142,1.531c0.097,1.836,0.011,1.962-1.911,2.703
			c-0.214-2.342-0.474-4.633-0.622-6.93c-0.185-2.85-0.493-2.562-3.293-2.156c-3.541,0.514-3.417,3.287-4.425,5.412
			c-0.397,0.839-0.792,1.204-1.823,0.979c0.572-1.785,2.091-3.377,1.188-5.44c1.955-1.974,2.312-4.72,2.882-7.335
			C155.788,503.179,157.984,500.445,160.106,499.868z M160.601,509.452c-0.715-2.379-1.398-4.649-2.081-6.921
			c-0.148-0.007-0.297-0.013-0.445-0.02c-1.545,2.466-1.403,5.52-2.995,8.293C157.168,510.293,158.81,509.891,160.601,509.452z"/>
		<path fill-rule="evenodd" clip-rule="evenodd" fill="#E5E5E5" d="M135.145,516.405c1.273-0.297,2.466-0.596,3.669-0.85
			c1.391-0.293,2.783-0.595,4.19-0.782c0.336-0.044,0.729,0.346,1.129,0.911c-3.424,0.845-6.847,1.688-10.533,2.598
			c0-1.618-0.035-3.304,0.008-4.987c0.066-2.519,0.138-5.039,0.303-7.554c0.147-2.271,0.369-4.542,0.697-6.792
			c0.053-0.373,0.819-0.642,1.251-0.953C135.616,504.254,135.382,510.277,135.145,516.405z"/>
		<path fill-rule="evenodd" clip-rule="evenodd" fill="#E5E5E5" d="M173.872,410.852c1.094,1.51,2.177,2.784,2.981,4.215
			c0.346,0.614,0.287,1.597,0.1,2.334c-0.248,0.971-0.759,1.888-1.236,2.785c-0.854,1.602-3.786,2.481-5.297,1.617
			c-0.188-0.106-0.383-0.304-0.448-0.501c-0.476-1.444-1.211-2.887-1.269-4.354c-0.037-0.933,0.797-2.042,1.508-2.829
			C171.255,412.959,172.54,412.018,173.872,410.852z M173.356,413.591c-1.394,0.215-2.381,1.531-3.341,2.772
			c-0.506,0.656,0.283,3.244,1.044,3.449c0.771,0.208,1.672,0.115,2.48-0.037c1.079-0.202,2.361-2.448,2.088-3.51
			c-0.065-0.253-0.252-0.493-0.432-0.696C174.692,415,174.162,414.452,173.356,413.591z"/>
		<path fill-rule="evenodd" clip-rule="evenodd" fill="#E5E5E5" d="M175.337,403.95c1.408-0.015,2.719,1.337,2.517,2.881
			c-0.151,1.147-0.218,2.433-1.595,3.043c-0.773,0.343-1.316,0.281-1.84-0.376c-1.008-1.266-1.032-2.34-0.103-3.719
			C174.678,405.243,174.951,404.649,175.337,403.95z M175.856,405.819c-1.432,2.06-1.379,2.579,0.142,2.877
			c0.354-0.478,0.694-0.938,1.093-1.478C176.698,406.773,176.291,406.311,175.856,405.819z"/>
		<path fill-rule="evenodd" clip-rule="evenodd" fill="#E5E5E5" d="M172.914,399.823c0.621-0.679,1.339-0.45,1.995,0.951
			c0.499,1.064-0.58,3.518-1.727,3.923c-1.421,0.504-3.298-1.213-2.897-2.79c0.191-0.757,0.811-1.429,1.33-2.061
			C171.748,399.687,172.24,399.823,172.914,399.823z M174.154,402.268c-0.021-0.197-0.041-0.396-0.062-0.594
			c-0.502-0.221-1.038-0.666-1.5-0.6c-0.419,0.062-1.027,0.649-1.071,1.056c-0.065,0.633,0.146,1.603,1.067,1.414
			C173.173,403.426,173.636,402.714,174.154,402.268z"/>
		<path fill-rule="evenodd" clip-rule="evenodd" fill="#E5E5E5" d="M188.845,398.619c-1.391-0.793-2.78-1.586-4.21-2.401
			c1.295-1.133,3.555-0.066,4.427,1.981C188.99,398.339,188.918,398.479,188.845,398.619z"/>
		<path fill-rule="evenodd" clip-rule="evenodd" fill="#E5E5E5" d="M179.935,387.493c0.579,0.409,1.044,0.576,1.058,0.775
			c0.087,1.259,1.123,1.877,1.959,2.886c-0.462,0.171-0.879,0.479-1.076,0.372C180.44,390.758,180.341,389.287,179.935,387.493z"/>
		<path fill-rule="evenodd" clip-rule="evenodd" fill="#E5E5E5" d="M184.432,396.512c-0.408,1.321-0.779,2.523-1.201,3.889
			C182.384,398.043,182.871,396.534,184.432,396.512z"/>
		<path fill-rule="evenodd" clip-rule="evenodd" fill="#E5E5E5" d="M185.885,388.925c-0.848,0.887-1.57,1.645-2.464,2.58
			C183.326,389.997,184.101,389.269,185.885,388.925z"/>
		<path fill-rule="evenodd" clip-rule="evenodd" fill="#FF008C" d="M137.182,480.019c2.415,3.111,5.529,4.624,8.441,6.49
			c2.017,1.293,4.111,1.06,6.159,1.528c2.613,0.599,5.212,0.396,7.842-0.246c1.301-0.318,2.769,0.134,4.141,0.01
			c2.673-0.243,5.332-0.638,7.994-0.986c1.3-0.169,2.651-0.206,3.88-0.607c2.487-0.814,4.943-1.752,7.341-2.803
			c1.445-0.634,2.757-1.576,4.188-2.414c0.028,0.104,0.18,0.404,0.181,0.708c0.007,1.759,0.057,3.522-0.055,5.276
			c-0.244,3.86-3.035,6.669-6.866,7.199c-2.4,0.332-4.761,0.966-7.164,1.266c-2.306,0.287-4.643,0.398-6.97,0.439
			c-2.943,0.051-5.89-0.078-8.836-0.075c-3.336,0.003-6.673,0.082-10.01,0.099c-1.824,0.009-3.659,0.057-5.474-0.101
			c-1.696-0.147-3.405-0.419-5.043-0.87c-1.115-0.305-2.008-0.82-2.317-2.382c-0.56-2.822-0.074-5.446,0.663-8.07
			C135.684,483.033,136.454,481.688,137.182,480.019z"/>
		<path fill-rule="evenodd" clip-rule="evenodd" fill="#FFA1D5" d="M138.519,478.489c2.529-1.83,5.196-2.737,8.161-2.979
			c1.594-0.13,3.146-0.693,4.737-0.935c2.063-0.312,4.144-0.519,6.22-0.735c1.59-0.165,3.182-0.32,4.777-0.401
			c2.087-0.106,4.178-0.151,6.267-0.19c1.379-0.026,2.765-0.074,4.135,0.033c1.372,0.106,2.772,0.251,4.088,0.631
			c2.797,0.807,5.616,1.612,8.271,2.776c0.795,0.35,1.506,1.914,1.448,2.872c-0.048,0.788-1.154,1.854-2.026,2.192
			c-3.905,1.516-7.702,3.421-12.041,3.571c-1.715,0.059-3.41,0.567-5.129,0.754c-0.813,0.088-1.663-0.192-2.488-0.147
			c-2.567,0.138-5.141,0.589-7.692,0.478c-3.215-0.141-6.541-0.298-9.578-1.228c-2.792-0.856-5.597-2.22-7.649-4.55
			C139.467,480.008,139.054,479.264,138.519,478.489z"/>
		<path fill-rule="evenodd" clip-rule="evenodd" fill="#FF008C" d="M161.84,436.294c0.834,0.336,1.669,0.672,2.679,1.079
			c-0.507,1.334-0.927,2.595-1.466,3.803c-0.448,1.005-2.954,1.7-3.606,0.924c-0.318-0.379-0.251-1.496,0.09-1.922
			c0.646-0.808,1.613-1.357,2.639-2.164c0.21,0.854,0.318,1.298,0.442,1.799C163.245,438.636,162.939,437.563,161.84,436.294z"/>
		<path fill-rule="evenodd" clip-rule="evenodd" fill="#FF008C" d="M157.093,471.213c0.45-0.861,0.899-1.724,1.35-2.587
			c0.195-0.002,0.39-0.003,0.585-0.005c0.312,0.862,0.622,1.725,0.934,2.588c-0.82,0.191-1.643,0.383-2.463,0.574
			C157.363,471.594,157.229,471.402,157.093,471.213z"/>
		<path fill-rule="evenodd" clip-rule="evenodd" fill="#FF008C" d="M173.356,413.591c0.806,0.861,1.336,1.409,1.84,1.979
			c0.18,0.203,0.366,0.443,0.432,0.696c0.273,1.062-1.009,3.308-2.088,3.51c-0.809,0.152-1.709,0.245-2.48,0.037
			c-0.761-0.205-1.55-2.793-1.044-3.449C170.976,415.122,171.963,413.806,173.356,413.591z"/>
		<path fill-rule="evenodd" clip-rule="evenodd" fill="#FF008C" d="M175.856,405.819c0.435,0.491,0.842,0.954,1.234,1.399
			c-0.398,0.539-0.739,1-1.093,1.478C174.478,408.398,174.425,407.879,175.856,405.819z"/>
		<path fill-rule="evenodd" clip-rule="evenodd" fill="#FF008C" d="M174.154,402.268c-0.519,0.446-0.981,1.158-1.566,1.276
			c-0.921,0.188-1.133-0.781-1.067-1.414c0.044-0.406,0.652-0.994,1.071-1.056c0.462-0.066,0.998,0.379,1.5,0.6
			C174.113,401.871,174.134,402.07,174.154,402.268z"/>
		<path fill-rule="evenodd" clip-rule="evenodd" fill="#E5E5E5" d="M153.893,451.395c0.189-1.992,0.434-3.836,2.352-4.839
			c0.854-0.446,1.641-0.683,2.613,0.044c1.523,1.138,2.471,2.641,3.255,4.281c0.181,0.378,0.154,0.987-0.021,1.381
			c-0.731,1.638-1.56,3.235-3.196,4.189c-1.701,0.991-4.391-0.33-4.662-2.291C154.1,453.207,153.996,452.249,153.893,451.395z
			 M156.473,447.699c-0.9,1.75-1.534,3.405-1.003,5.441c0.41,1.57,1.436,2.459,2.757,1.65c1.153-0.706,2.46-1.56,2.517-3.068
			c0.054-1.466-0.808-2.618-2.109-3.373c-0.266-0.154-0.508-0.346-0.873-0.598c0.043,0.399,0.069,0.635,0.13,1.202
			C157.283,448.415,156.903,448.079,156.473,447.699z"/>
		<path fill-rule="evenodd" clip-rule="evenodd" fill="#E5E5E5" d="M151.045,462.699c0.477-1.368,0.847-2.786,1.458-4.092
			c0.61-1.303,3.404-1.58,4.245-0.418c0.862,1.193,1.82,2.476,2.129,3.855c0.212,0.948-0.337,2.389-1.044,3.143
			c-0.896,0.955-2.239,1.583-3.497,2.08c-1.105,0.437-2.836-1.352-2.953-2.881c-0.041-0.521-0.007-1.046-0.007-1.568
			C151.267,462.778,151.155,462.739,151.045,462.699z M152.187,464.451c0.477,0.184,0.596,0.242,0.721,0.275
			c1.755,0.472,3.698-0.049,4.423-1.367c0.769-1.397-0.457-2.217-1.161-3.161c-0.11-0.148-0.15-0.351-0.266-0.493
			c-0.637-0.783-2.135-0.812-2.483,0.101C152.852,461.295,152.582,462.898,152.187,464.451z"/>
		<path fill-rule="evenodd" clip-rule="evenodd" fill="#E5E5E5" d="M167.633,455.961c-0.653,0.978-1.598,1.876-1.895,2.953
			c-0.462,1.671-1.737,1.854-2.988,2.271c-1.359,0.45-2.241-0.452-2.716-1.357c-0.349-0.665-0.241-1.854,0.143-2.541
			c0.453-0.809,1.422-1.328,2.174-1.966c0.197-0.168,0.575-0.284,0.604-0.466c0.248-1.589,1.38-1.735,2.572-1.475
			c1.186,0.26,2.133,0.899,1.736,2.442C167.388,455.869,167.511,455.914,167.633,455.961z M164.089,454.848
			c0.208,0.921,0.318,1.409,0.409,1.816c-0.616-0.094-1.188-0.284-1.735-0.225c-0.322,0.036-0.659,0.424-0.889,0.73
			c-0.312,0.418-0.854,1.101-0.72,1.334c0.326,0.562,0.937,1.166,1.533,1.297c0.488,0.108,1.293-0.297,1.654-0.729
			c0.712-0.85,1.214-1.876,1.894-2.975C165.591,455.722,164.98,455.366,164.089,454.848z"/>
		<path fill-rule="evenodd" clip-rule="evenodd" fill="#FF008C" d="M156.473,447.699c0.431,0.38,0.811,0.716,1.418,1.255
			c-0.061-0.567-0.087-0.803-0.13-1.202c0.365,0.252,0.607,0.443,0.873,0.598c1.302,0.755,2.163,1.907,2.109,3.373
			c-0.057,1.509-1.363,2.362-2.517,3.068c-1.321,0.809-2.347-0.08-2.757-1.65C154.938,451.104,155.572,449.449,156.473,447.699z"/>
		<path fill-rule="evenodd" clip-rule="evenodd" fill="#FF008C" d="M152.187,464.451c0.396-1.553,0.665-3.156,1.233-4.646
			c0.349-0.913,1.847-0.884,2.483-0.101c0.115,0.143,0.155,0.345,0.266,0.493c0.704,0.944,1.93,1.764,1.161,3.161
			c-0.725,1.318-2.668,1.839-4.423,1.367C152.782,464.693,152.663,464.635,152.187,464.451z"/>
		<path fill-rule="evenodd" clip-rule="evenodd" fill="#FF008C" d="M164.089,454.848c0.892,0.519,1.502,0.874,2.146,1.25
			c-0.68,1.099-1.182,2.125-1.894,2.975c-0.361,0.432-1.166,0.837-1.654,0.729c-0.597-0.131-1.207-0.735-1.533-1.297
			c-0.135-0.233,0.408-0.916,0.72-1.334c0.229-0.307,0.566-0.694,0.889-0.73c0.547-0.06,1.119,0.131,1.735,0.225
			C164.407,456.257,164.297,455.769,164.089,454.848z"/>
	</g>
</g>
</svg>
